<svg width="400" height="404" viewBox="0 0 400 404" fill="none" xmlns="http://www.w3.org/2000/svg">
<g clip-path="url(#clip0_5856_172872)">
<path d="M178.997 19.2604V179.314C178.997 186.432 183.325 194.705 188.659 197.787L374.435 305.127C376.844 306.524 379.052 306.611 380.742 305.638L380.877 305.564C382.856 304.342 384.091 301.629 384.091 297.815V137.754C384.091 130.636 379.77 122.37 374.435 119.281L188.666 11.941C186.324 10.5913 184.184 10.4704 182.499 11.3501L182.345 11.4441C180.292 12.6192 178.997 15.359 178.997 19.2604ZM208.226 152.017V60.5513L287.378 106.288V197.753L208.226 152.017ZM310.052 166.972V119.395L359.679 148.062V195.652L310.052 166.978V166.972Z" fill="white"/>
<path d="M196.725 3.12412L182.5 11.3434C184.184 10.4637 186.324 10.5846 188.666 11.9343L374.435 119.275C379.77 122.363 384.091 130.63 384.091 137.748V297.801C384.091 301.615 382.856 304.328 380.877 305.55L395.122 297.324C397.176 296.136 398.471 293.389 398.471 289.501V129.448C398.471 122.323 394.149 114.044 388.815 110.961L203.039 3.63446C200.624 2.23773 198.409 2.15044 196.718 3.12412H196.725Z" fill="#222222"/>
<path d="M208.226 60.5513V152.017L287.378 197.753V106.288L208.226 60.5513Z" fill="#EAECF0"/>
<path d="M310.052 156.718V166.972L359.68 195.645V171.968L348.897 155.704L331.994 165.77L323.412 151.185L310.052 156.718Z" fill="#222222"/>
<path d="M310.052 119.395V156.718L323.412 151.184L331.994 165.763L348.897 155.697L359.68 171.961V148.049L310.052 119.382V119.395ZM328.706 147.827C326.344 146.457 324.425 143.126 324.425 140.393C324.425 137.66 326.344 136.546 328.706 137.916C331.088 139.285 333 142.616 333 145.349C333 148.082 331.088 149.204 328.706 147.827Z" fill="#E4282B"/>
<path d="M324.424 140.393C324.424 143.126 326.344 146.457 328.706 147.827C331.088 149.204 333 148.082 333 145.349C333 142.616 331.088 139.285 328.706 137.916C326.344 136.546 324.424 137.66 324.424 140.393Z" fill="white"/>
<path d="M380.876 307.095C381.151 307.095 381.433 307.021 381.681 306.867C384.224 305.295 385.62 302.079 385.62 297.815V137.754C385.62 130.039 381.044 121.336 375.199 117.952L189.43 10.6114C186.719 9.0468 184.002 8.82521 181.788 9.98691C181.036 10.3764 180.747 11.3031 181.143 12.0552C181.533 12.8072 182.459 13.096 183.21 12.7065C184.82 11.8671 186.652 12.5521 187.9 13.2706L373.663 120.604C378.568 123.445 382.554 131.133 382.554 137.754V297.808C382.554 300.924 381.648 303.274 380.064 304.254C379.346 304.698 379.118 305.644 379.568 306.363C379.856 306.833 380.359 307.088 380.869 307.088L380.876 307.095Z" fill="#222222"/>
<path d="M378.26 307.82C379.414 307.82 380.514 307.538 381.507 306.96C382.239 306.537 382.494 305.597 382.071 304.865C381.648 304.133 380.716 303.878 379.977 304.301C378.36 305.235 376.482 304.543 375.2 303.798L189.431 196.457C184.606 193.671 180.533 185.821 180.533 179.307V19.2604C180.533 16.0775 181.473 13.7138 183.11 12.7736C183.841 12.3506 184.096 11.4172 183.68 10.6785C183.258 9.93989 182.325 9.69143 181.587 10.1078C178.97 11.6052 177.467 14.9426 177.467 19.2537V179.307C177.467 187.036 182.05 195.732 187.901 199.11L373.663 306.457C375.233 307.363 376.79 307.82 378.26 307.82Z" fill="#222222"/>
<path d="M380.742 307.169C381.004 307.169 381.265 307.102 381.507 306.967L395.887 298.661C398.497 297.15 400 293.813 400 289.508V129.448C400 121.712 395.424 113.01 389.579 109.632L203.81 2.305C200.999 0.679955 198.207 0.498649 195.959 1.79466L181.533 10.1348C180.815 10.5847 180.593 11.5315 181.043 12.25C181.492 12.9685 182.439 13.1901 183.157 12.7402L197.489 4.45382C199.106 3.52043 200.985 4.21208 202.274 4.96416L388.043 112.291C392.86 115.071 396.933 122.928 396.933 129.448V289.501C396.933 292.684 395.994 295.055 394.357 296.002L379.977 304.308C379.246 304.731 378.991 305.665 379.413 306.403C379.695 306.893 380.212 307.176 380.742 307.176V307.169Z" fill="#222222"/>
<path d="M359.679 197.183C359.941 197.183 360.209 197.116 360.444 196.975C360.92 196.699 361.209 196.196 361.209 195.645V148.055C361.209 147.505 360.914 147.001 360.444 146.726L310.816 118.059C310.34 117.784 309.756 117.784 309.286 118.059C308.81 118.334 308.521 118.838 308.521 119.389V166.965C308.521 167.516 308.817 168.019 309.286 168.295L358.914 196.968C359.149 197.102 359.417 197.176 359.679 197.176V197.183ZM358.149 148.948V192.993L311.588 166.092V122.055L358.149 148.948Z" fill="#222222"/>
<path d="M359.68 173.499C359.968 173.499 360.263 173.418 360.525 173.243C361.23 172.773 361.424 171.82 360.955 171.115L350.171 154.851C349.722 154.166 348.809 153.965 348.111 154.381L332.531 163.661L324.727 150.406C324.338 149.747 323.526 149.472 322.821 149.768L309.468 155.294C308.683 155.616 308.314 156.516 308.636 157.295C308.958 158.081 309.85 158.45 310.636 158.128L322.761 153.105L330.672 166.535C330.88 166.884 331.215 167.139 331.611 167.24C332.001 167.341 332.423 167.28 332.772 167.072L348.42 157.752L358.398 172.8C358.693 173.243 359.183 173.485 359.673 173.485L359.68 173.499Z" fill="#222222"/>
<path d="M330.638 149.949C331.309 149.949 331.946 149.788 332.51 149.466C333.798 148.72 334.536 147.223 334.536 145.356C334.536 142.072 332.315 138.225 329.477 136.593C327.866 135.659 326.209 135.552 324.921 136.291C323.632 137.036 322.894 138.533 322.894 140.4C322.894 143.67 325.108 147.525 327.94 149.163C328.853 149.687 329.779 149.956 330.638 149.956V149.949ZM326.793 138.862C327.101 138.862 327.504 138.997 327.933 139.245C329.846 140.346 331.463 143.14 331.463 145.349C331.463 146.074 331.275 146.632 330.973 146.806C330.671 146.981 330.094 146.867 329.47 146.504C327.564 145.396 325.954 142.603 325.954 140.4C325.954 139.682 326.142 139.124 326.444 138.95C326.538 138.896 326.658 138.869 326.793 138.869V138.862Z" fill="#222222"/>
<path d="M359.679 214.729C360.21 214.729 360.726 214.454 361.008 213.964C361.431 213.232 361.183 212.292 360.444 211.869L310.817 183.195C310.085 182.772 309.146 183.021 308.723 183.759C308.3 184.491 308.549 185.431 309.287 185.854L358.915 214.528C359.156 214.669 359.418 214.736 359.679 214.736V214.729Z" fill="#222222"/>
<path d="M359.679 227.891C360.21 227.891 360.726 227.615 361.008 227.125C361.431 226.393 361.183 225.453 360.444 225.03L349.413 218.657C348.682 218.234 347.742 218.483 347.319 219.221C346.897 219.953 347.152 220.894 347.883 221.317L358.915 227.689C359.156 227.83 359.418 227.897 359.679 227.897V227.891Z" fill="#222222"/>
<path d="M335.422 213.876C335.952 213.876 336.468 213.601 336.75 213.111C337.173 212.379 336.925 211.439 336.187 211.016L310.809 196.357C310.078 195.934 309.138 196.182 308.715 196.921C308.293 197.653 308.541 198.593 309.279 199.016L334.657 213.675C334.898 213.816 335.16 213.883 335.422 213.883V213.876Z" fill="#222222"/>
<path d="M359.679 241.059C360.21 241.059 360.726 240.784 361.008 240.293C361.431 239.562 361.183 238.621 360.444 238.198L310.817 209.532C310.085 209.109 309.146 209.357 308.723 210.096C308.3 210.834 308.549 211.768 309.287 212.191L358.915 240.858C359.156 240.999 359.418 241.066 359.679 241.066V241.059Z" fill="#222222"/>
<path d="M359.679 254.234C360.21 254.234 360.726 253.959 361.008 253.468C361.431 252.736 361.183 251.796 360.444 251.373L331.477 234.639C330.746 234.216 329.806 234.465 329.383 235.203C328.961 235.935 329.209 236.875 329.947 237.298L358.915 254.032C359.156 254.173 359.418 254.241 359.679 254.241V254.234Z" fill="#222222"/>
<path d="M322.19 232.571C322.72 232.571 323.237 232.296 323.519 231.806C323.941 231.074 323.693 230.134 322.962 229.71L310.816 222.693C310.085 222.27 309.146 222.525 308.723 223.257C308.3 223.989 308.555 224.929 309.286 225.352L321.425 232.363C321.667 232.504 321.928 232.571 322.19 232.571Z" fill="#222222"/>
<path d="M208.662 154.32C209.367 154.32 210.058 153.951 210.434 153.3C210.89 152.507 210.756 151.534 210.172 150.896C209.91 150.07 209.139 149.465 208.226 149.465C207.099 149.465 206.18 150.379 206.18 151.514V152.024C206.18 152.756 206.569 153.427 207.2 153.797L207.642 154.052C207.965 154.24 208.313 154.327 208.662 154.327V154.32Z" fill="#222222"/>
<path d="M277.937 194.342C278.641 194.342 279.332 193.973 279.708 193.321C280.272 192.341 279.936 191.092 278.956 190.528L278.057 190.011C277.078 189.447 275.83 189.783 275.266 190.763C274.702 191.743 275.038 192.992 276.017 193.556L276.917 194.074C277.239 194.262 277.588 194.349 277.937 194.349V194.342ZM268.039 188.628C268.744 188.628 269.435 188.258 269.811 187.607C270.374 186.627 270.039 185.378 269.066 184.813L268.167 184.296C267.187 183.732 265.939 184.068 265.375 185.042C264.812 186.022 265.147 187.271 266.12 187.835L267.019 188.352C267.341 188.54 267.69 188.628 268.039 188.628ZM258.142 182.906C258.846 182.906 259.537 182.537 259.913 181.886C260.477 180.905 260.141 179.656 259.168 179.092L258.269 178.575C257.296 178.011 256.042 178.347 255.478 179.321C254.914 180.301 255.25 181.55 256.223 182.114L257.122 182.631C257.444 182.819 257.793 182.906 258.142 182.906ZM248.244 177.192C248.949 177.192 249.64 176.823 250.016 176.171C250.579 175.191 250.244 173.942 249.264 173.378L248.365 172.861C247.385 172.297 246.137 172.632 245.574 173.613C245.01 174.593 245.346 175.842 246.325 176.406L247.224 176.923C247.547 177.111 247.895 177.199 248.244 177.199V177.192ZM238.347 171.477C239.052 171.477 239.743 171.108 240.118 170.457C240.682 169.476 240.347 168.227 239.367 167.663L238.468 167.146C237.488 166.582 236.24 166.918 235.676 167.898C235.113 168.879 235.448 170.128 236.428 170.692L237.327 171.209C237.649 171.397 237.998 171.484 238.347 171.484V171.477ZM228.45 165.756C229.154 165.756 229.845 165.387 230.221 164.735C230.785 163.755 230.449 162.506 229.476 161.942L228.577 161.425C227.604 160.861 226.349 161.197 225.786 162.17C225.222 163.151 225.558 164.4 226.531 164.964L227.43 165.481C227.752 165.669 228.101 165.756 228.45 165.756ZM218.552 160.042C219.257 160.042 219.948 159.672 220.324 159.021C220.887 158.041 220.552 156.792 219.572 156.227L218.673 155.71C217.693 155.146 216.445 155.482 215.882 156.462C215.318 157.443 215.653 158.692 216.633 159.256L217.532 159.773C217.854 159.961 218.203 160.048 218.552 160.048V160.042Z" fill="#222222"/>
<path d="M287.371 199.795C287.72 199.795 288.076 199.701 288.391 199.52C289.022 199.157 289.411 198.479 289.411 197.747V197.236C289.411 196.108 288.499 195.188 287.365 195.188C286.902 195.188 286.472 195.343 286.13 195.605C285.734 195.773 285.385 196.061 285.157 196.464C284.593 197.445 284.929 198.694 285.902 199.258L286.345 199.513C286.66 199.694 287.016 199.788 287.365 199.788L287.371 199.795Z" fill="#222222"/>
<path d="M287.371 188.89C288.499 188.89 289.418 187.976 289.418 186.841V185.801C289.418 184.673 288.505 183.753 287.371 183.753C286.237 183.753 285.325 184.666 285.325 185.801V186.841C285.325 187.97 286.237 188.89 287.371 188.89ZM287.371 177.454C288.499 177.454 289.418 176.541 289.418 175.406V174.365C289.418 173.237 288.505 172.317 287.371 172.317C286.237 172.317 285.325 173.23 285.325 174.365V175.406C285.325 176.534 286.237 177.454 287.371 177.454ZM287.371 166.018C288.499 166.018 289.418 165.105 289.418 163.97V162.929C289.418 161.801 288.505 160.881 287.371 160.881C286.237 160.881 285.325 161.794 285.325 162.929V163.97C285.325 165.098 286.237 166.018 287.371 166.018ZM287.371 154.582C288.499 154.582 289.418 153.669 289.418 152.534V151.493C289.418 150.365 288.505 149.445 287.371 149.445C286.237 149.445 285.325 150.359 285.325 151.493V152.534C285.325 153.662 286.237 154.582 287.371 154.582ZM287.371 143.147C288.499 143.147 289.418 142.233 289.418 141.098V140.058C289.418 138.93 288.505 138.01 287.371 138.01C286.237 138.01 285.325 138.923 285.325 140.058V141.098C285.325 142.227 286.237 143.147 287.371 143.147ZM287.371 131.711C288.499 131.711 289.418 130.798 289.418 129.663V128.622C289.418 127.494 288.505 126.574 287.371 126.574C286.237 126.574 285.325 127.487 285.325 128.622V129.663C285.325 130.791 286.237 131.711 287.371 131.711ZM287.371 120.275C288.499 120.275 289.418 119.362 289.418 118.227V117.186C289.418 116.058 288.505 115.138 287.371 115.138C286.237 115.138 285.325 116.051 285.325 117.186V118.227C285.325 119.355 286.237 120.275 287.371 120.275Z" fill="#222222"/>
<path d="M287.371 108.839C288.499 108.839 289.418 107.926 289.418 106.791V106.281C289.418 105.549 289.029 104.877 288.398 104.508L287.955 104.253C286.975 103.689 285.727 104.025 285.164 104.998C284.707 105.791 284.842 106.764 285.425 107.402C285.687 108.228 286.459 108.833 287.378 108.833L287.371 108.839Z" fill="#222222"/>
<path d="M277.937 102.876C278.641 102.876 279.332 102.507 279.708 101.856C280.272 100.875 279.936 99.6262 278.956 99.0622L278.057 98.5451C277.078 97.981 275.83 98.3168 275.266 99.2972C274.702 100.278 275.038 101.527 276.017 102.091L276.917 102.608C277.239 102.796 277.588 102.883 277.937 102.883V102.876ZM268.039 97.1618C268.744 97.1618 269.428 96.7925 269.811 96.1411C270.374 95.1607 270.039 93.9117 269.066 93.3476L268.167 92.8306C267.194 92.2665 265.939 92.5956 265.375 93.576C264.812 94.5564 265.147 95.8054 266.12 96.3694L267.019 96.8865C267.341 97.0745 267.69 97.1618 268.039 97.1618ZM258.142 91.4406C258.846 91.4406 259.537 91.0712 259.913 90.4199C260.477 89.4395 260.141 88.1905 259.162 87.6264L258.263 87.1094C257.283 86.5453 256.035 86.881 255.471 87.8614C254.908 88.8418 255.243 90.0908 256.223 90.6549L257.122 91.172C257.444 91.36 257.793 91.4473 258.142 91.4473V91.4406ZM248.244 85.7261C248.949 85.7261 249.64 85.3567 250.016 84.7054C250.579 83.725 250.244 82.476 249.264 81.9119L248.365 81.3948C247.385 80.8308 246.137 81.1665 245.574 82.1469C245.01 83.1273 245.346 84.3763 246.325 84.9404L247.224 85.4575C247.547 85.6455 247.895 85.7328 248.244 85.7328V85.7261ZM238.347 80.0048C239.052 80.0048 239.743 79.6355 240.118 78.9841C240.682 78.0037 240.347 76.7547 239.367 76.1907L238.468 75.6736C237.488 75.1095 236.24 75.4453 235.676 76.4257C235.113 77.4061 235.448 78.6551 236.428 79.2192L237.327 79.7362C237.649 79.9242 237.998 80.0115 238.347 80.0115V80.0048ZM228.45 74.2903C229.154 74.2903 229.845 73.921 230.221 73.2696C230.785 72.2892 230.449 71.0402 229.47 70.4762L228.57 69.9591C227.591 69.395 226.343 69.7308 225.779 70.7112C225.215 71.6916 225.551 72.9406 226.531 73.5046L227.43 74.0217C227.752 74.2097 228.101 74.297 228.45 74.297V74.2903ZM218.552 68.5758C219.257 68.5758 219.941 68.2065 220.324 67.5551C220.887 66.5747 220.552 65.3257 219.579 64.7616L218.68 64.2446C217.7 63.6805 216.452 64.0163 215.888 64.9899C215.325 65.9703 215.66 67.2193 216.633 67.7834L217.532 68.3005C217.854 68.4885 218.203 68.5758 218.552 68.5758Z" fill="#222222"/>
<path d="M208.225 63.1098C208.688 63.1098 209.118 62.9553 209.46 62.6934C209.856 62.5256 210.205 62.2301 210.439 61.8272C211.003 60.8468 210.668 59.5978 209.688 59.0337L209.245 58.7786C208.614 58.4159 207.836 58.4159 207.198 58.7786C206.568 59.1412 206.179 59.8194 206.179 60.5513V61.0617C206.179 62.1898 207.091 63.1098 208.225 63.1098Z" fill="#222222"/>
<path d="M208.226 143.153C209.353 143.153 210.272 142.24 210.272 141.105V140.064C210.272 138.936 209.36 138.016 208.226 138.016C207.092 138.016 206.179 138.929 206.179 140.064V141.105C206.179 142.233 207.092 143.153 208.226 143.153ZM208.226 131.718C209.353 131.718 210.272 130.804 210.272 129.669V128.629C210.272 127.5 209.36 126.58 208.226 126.58C207.092 126.58 206.179 127.494 206.179 128.629V129.669C206.179 130.798 207.092 131.718 208.226 131.718ZM208.226 120.282C209.353 120.282 210.272 119.369 210.272 118.234V117.193C210.272 116.065 209.36 115.145 208.226 115.145C207.092 115.145 206.179 116.058 206.179 117.193V118.234C206.179 119.362 207.092 120.282 208.226 120.282ZM208.226 108.846C209.353 108.846 210.272 107.933 210.272 106.798V105.757C210.272 104.629 209.36 103.709 208.226 103.709C207.092 103.709 206.179 104.622 206.179 105.757V106.798C206.179 107.926 207.092 108.846 208.226 108.846ZM208.226 97.4103C209.353 97.4103 210.272 96.497 210.272 95.3622V94.3213C210.272 93.1932 209.36 92.2732 208.226 92.2732C207.092 92.2732 206.179 93.1865 206.179 94.3213V95.3622C206.179 96.4903 207.092 97.4103 208.226 97.4103ZM208.226 85.9745C209.353 85.9745 210.272 85.0613 210.272 83.9264V82.8856C210.272 81.7574 209.36 80.8375 208.226 80.8375C207.092 80.8375 206.179 81.7507 206.179 82.8856V83.9264C206.179 85.0545 207.092 85.9745 208.226 85.9745ZM208.226 74.5388C209.353 74.5388 210.272 73.6255 210.272 72.4907V71.4498C210.272 70.3217 209.36 69.4017 208.226 69.4017C207.092 69.4017 206.179 70.315 206.179 71.4498V72.4907C206.179 73.6188 207.092 74.5388 208.226 74.5388Z" fill="#222222"/>
<path d="M247.354 105.003V209.014L154.102 155.216V51.2104L247.354 105.003ZM235.595 184.01V155.445L220.154 146.536V175.101L235.595 184.01ZM235.595 141.659V113.093L165.861 72.8627V101.428L235.595 141.654V141.659ZM211.292 169.991V141.426L195.856 132.522V161.087L211.292 169.991Z" fill="white"/>
<path d="M235.595 155.444V184.01L220.159 175.101V146.54L235.595 155.444Z" fill="#222222"/>
<path d="M235.595 113.093V141.658L200.732 107.263L235.595 113.093Z" fill="white"/>
<path d="M235.594 113.093L200.732 107.263L165.86 72.8672L235.594 113.093Z" fill="white"/>
<path d="M235.594 141.659L165.86 101.433L200.732 107.263L235.594 141.659Z" fill="white"/>
<path d="M211.296 141.426V169.991L195.86 161.087V132.521L211.296 141.426Z" fill="#E4282B"/>
<path d="M200.732 107.263L165.86 101.433V72.8672L200.732 107.263Z" fill="white"/>
<path d="M247.354 209.685C247.238 209.685 247.121 209.653 247.018 209.595L153.766 155.803C153.56 155.682 153.43 155.462 153.43 155.221V51.2105C153.43 50.9689 153.56 50.7496 153.766 50.6288C153.972 50.508 154.231 50.508 154.437 50.6288L247.69 104.426C247.896 104.547 248.026 104.766 248.026 105.008V209.018C248.026 209.26 247.896 209.479 247.69 209.6C247.587 209.658 247.471 209.689 247.354 209.689V209.685ZM154.773 154.832L246.682 207.85V105.393L154.773 52.3739V154.832Z" fill="#222222"/>
<path d="M235.595 142.33C235.478 142.33 235.362 142.298 235.259 142.24L165.525 102.014C165.319 101.893 165.189 101.674 165.189 101.433V72.8672C165.189 72.6256 165.319 72.4064 165.525 72.2856C165.731 72.1647 165.991 72.1647 166.197 72.2856L235.931 112.516C236.137 112.637 236.266 112.856 236.266 113.098V141.663C236.266 141.905 236.137 142.124 235.931 142.245C235.828 142.303 235.711 142.334 235.595 142.334V142.33ZM166.533 101.043L234.923 140.495V113.478L166.533 74.0261V101.043Z" fill="#222222"/>
<path d="M235.594 184.681C235.477 184.681 235.361 184.65 235.258 184.592L219.817 175.683C219.611 175.562 219.481 175.343 219.481 175.101V146.536C219.481 146.294 219.611 146.075 219.817 145.954C220.023 145.833 220.283 145.833 220.489 145.954L235.93 154.858C236.136 154.979 236.265 155.199 236.265 155.44V184.006C236.265 184.247 236.136 184.466 235.93 184.587C235.827 184.645 235.71 184.677 235.594 184.677V184.681ZM220.825 174.716L234.922 182.847V155.829L220.825 147.699V174.716Z" fill="#222222"/>
<path d="M211.296 170.663C211.18 170.663 211.063 170.631 210.96 170.573L195.524 161.669C195.318 161.548 195.188 161.329 195.188 161.087V132.522C195.188 132.28 195.318 132.061 195.524 131.94C195.73 131.819 195.99 131.819 196.196 131.94L211.632 140.844C211.838 140.965 211.968 141.184 211.968 141.426V169.991C211.968 170.233 211.838 170.452 211.632 170.573C211.529 170.631 211.413 170.663 211.296 170.663ZM196.532 160.698L210.625 168.828V141.811L196.532 133.681V160.698Z" fill="#222222"/>
<path d="M186.755 127.94C186.643 127.94 186.527 127.908 186.42 127.85L165.529 115.796C165.207 115.612 165.099 115.201 165.283 114.879C165.466 114.556 165.878 114.449 166.201 114.632L187.091 126.682C187.414 126.866 187.521 127.277 187.338 127.6C187.212 127.814 186.988 127.935 186.755 127.935V127.94Z" fill="#222222"/>
<path d="M186.755 135.081C186.643 135.081 186.527 135.054 186.42 134.992L165.529 122.937C165.207 122.754 165.099 122.342 165.283 122.02C165.466 121.698 165.878 121.59 166.201 121.774L187.091 133.828C187.414 134.012 187.521 134.423 187.338 134.746C187.212 134.96 186.988 135.081 186.755 135.081Z" fill="#222222"/>
<path d="M186.755 142.222C186.643 142.222 186.527 142.196 186.42 142.133L165.529 130.079C165.207 129.895 165.099 129.483 165.283 129.161C165.466 128.839 165.878 128.732 166.201 128.915L187.091 140.97C187.414 141.153 187.521 141.565 187.338 141.887C187.212 142.102 186.988 142.222 186.755 142.222Z" fill="#222222"/>
<path d="M186.755 149.364C186.643 149.364 186.527 149.337 186.42 149.274L165.529 137.22C165.207 137.036 165.099 136.625 165.283 136.303C165.466 135.98 165.878 135.873 166.201 136.057L187.091 148.111C187.414 148.294 187.521 148.706 187.338 149.028C187.212 149.243 186.988 149.364 186.755 149.364Z" fill="#222222"/>
<path d="M186.755 156.505C186.643 156.505 186.527 156.478 186.42 156.416L165.529 144.361C165.207 144.178 165.099 143.766 165.283 143.444C165.466 143.122 165.878 143.014 166.201 143.198L187.091 155.252C187.414 155.436 187.521 155.847 187.338 156.169C187.212 156.384 186.988 156.505 186.755 156.505Z" fill="#222222"/>
<path d="M235.599 113.764C235.564 113.764 235.523 113.764 235.488 113.755L165.754 102.09C165.387 102.028 165.14 101.683 165.203 101.316C165.266 100.949 165.606 100.703 165.978 100.766L235.711 112.431C236.079 112.494 236.325 112.838 236.262 113.205C236.208 113.532 235.922 113.764 235.599 113.764Z" fill="#222222"/>
<path d="M235.595 142.33C235.424 142.33 235.254 142.267 235.124 142.137L165.391 73.346C165.127 73.0865 165.122 72.6614 165.386 72.3974C165.646 72.1334 166.072 72.1289 166.336 72.3929L236.069 141.184C236.333 141.444 236.338 141.869 236.074 142.133C235.944 142.267 235.769 142.334 235.595 142.334V142.33Z" fill="#222222"/>
<g clip-path="url(#clip1_5856_172872)">
<path d="M158.486 261.701C158.973 262.229 159.527 262.672 160.145 263.035L165.757 266.267C165.184 265.92 164.669 265.49 164.208 264.995C164.401 264.546 164.614 264.097 164.833 263.652C167.99 257.254 173.319 251.145 179.365 247.595C182.297 245.874 185.055 244.95 187.487 244.763C189.513 244.609 191.314 244.967 192.777 245.802L187.149 242.558C183.93 240.666 179.079 241.112 173.647 244.301C167.181 248.1 161.531 254.832 158.486 261.708V261.701Z" fill="white"/>
<path d="M179.363 247.592C182.294 245.871 185.052 244.947 187.484 244.76C189.511 244.606 191.312 244.963 192.774 245.799L192.864 245.851C193.48 246.212 194.037 246.661 194.52 247.189C191.476 254.058 185.828 260.787 179.363 264.586C173.934 267.778 169.079 268.22 165.858 266.329L165.755 266.27C165.181 265.923 164.666 265.493 164.205 264.999C164.398 264.55 164.611 264.101 164.83 263.655C167.987 257.257 173.316 251.148 179.363 247.598V247.592ZM179.363 261.393C181.859 259.928 183.879 256.366 183.879 253.436C183.879 250.505 181.859 249.316 179.363 250.781C176.866 252.246 174.843 255.808 174.843 258.742C174.843 261.675 176.866 262.858 179.363 261.39V261.393Z" fill="#E4282B"/>
<path d="M183.879 253.436C183.879 256.366 181.859 259.928 179.363 261.393C176.866 262.858 174.843 261.675 174.843 258.745C174.843 255.815 176.866 252.249 179.363 250.784C181.859 249.319 183.879 250.505 183.879 253.439V253.436ZM179.363 257.513C180.033 257.119 180.577 256.159 180.577 255.373C180.577 254.586 180.033 254.265 179.363 254.658C178.693 255.051 178.148 256.008 178.148 256.795C178.148 257.582 178.693 257.903 179.363 257.513Z" fill="white"/>
<path d="M179.362 254.661C178.692 255.055 178.147 256.012 178.147 256.798C178.147 257.585 178.692 257.906 179.362 257.516C180.032 257.123 180.577 256.162 180.577 255.376C180.577 254.589 180.032 254.268 179.362 254.661Z" fill="#222222"/>
<path d="M170.323 267.942C168.567 267.942 166.973 267.549 165.616 266.752L165.516 266.693C165.284 266.559 165.204 266.26 165.336 266.021C165.468 265.785 165.761 265.703 165.993 265.838L166.096 265.897C169.295 267.778 174.044 267.142 179.121 264.156C185.162 260.607 190.816 254.166 193.944 247.287C193.547 246.894 193.103 246.556 192.623 246.274L192.536 246.225C192.304 246.094 192.22 245.792 192.349 245.557C192.478 245.321 192.774 245.232 193.006 245.366L193.096 245.419C193.76 245.809 194.353 246.287 194.872 246.851C195.004 246.995 195.039 247.208 194.959 247.389C191.782 254.56 185.899 261.311 179.601 265.008C176.299 266.952 173.103 267.942 170.32 267.942H170.323Z" fill="#222222"/>
<path d="M165.755 266.759C165.674 266.759 165.59 266.739 165.516 266.696L159.904 263.465C159.241 263.075 158.648 262.596 158.132 262.039C157.997 261.895 157.965 261.682 158.042 261.502C161.215 254.327 167.101 247.572 173.4 243.872C178.786 240.709 183.883 240.073 187.384 242.128L193.009 245.373C193.241 245.507 193.322 245.806 193.193 246.042C193.061 246.278 192.768 246.363 192.536 246.228C191.144 245.435 189.456 245.104 187.517 245.252C185.075 245.442 182.41 246.373 179.601 248.021C173.854 251.397 168.493 257.323 165.262 263.874C165.078 264.245 164.92 264.582 164.779 264.894C165.155 265.264 165.565 265.585 166 265.847C166.228 265.985 166.302 266.283 166.17 266.516C166.08 266.673 165.919 266.762 165.751 266.762L165.755 266.759ZM159.063 261.597C159.46 261.987 159.901 262.324 160.384 262.609L163.848 264.602C164.005 264.245 164.189 263.858 164.398 263.429C167.713 256.713 173.216 250.633 179.121 247.166C182.056 245.445 184.856 244.468 187.446 244.268C188.022 244.226 188.58 244.219 189.118 244.255L186.908 242.98C183.712 241.106 178.966 241.741 173.886 244.721C167.842 248.27 162.188 254.717 159.063 261.597Z" fill="#222222"/>
<path d="M177.342 262.518C176.83 262.518 176.35 262.393 175.925 262.144C174.916 261.551 174.362 260.345 174.362 258.745C174.362 255.661 176.498 251.898 179.124 250.358C180.487 249.558 181.791 249.444 182.8 250.037C183.808 250.63 184.362 251.836 184.362 253.439C184.362 256.523 182.229 260.282 179.604 261.823C178.815 262.285 178.045 262.521 177.339 262.521L177.342 262.518ZM181.379 250.643C180.847 250.643 180.242 250.833 179.604 251.207C177.246 252.59 175.326 255.972 175.326 258.745C175.326 259.977 175.709 260.882 176.405 261.292C177.104 261.701 178.067 261.587 179.121 260.967C181.479 259.584 183.396 256.205 183.396 253.436C183.396 252.2 183.012 251.295 182.316 250.886C182.043 250.725 181.727 250.643 181.379 250.643Z" fill="#222222"/>
<path d="M178.821 258.175C178.622 258.175 178.431 258.126 178.264 258.027C177.884 257.804 177.668 257.355 177.668 256.798C177.668 255.841 178.306 254.717 179.124 254.235C179.598 253.957 180.087 253.924 180.468 254.147C180.848 254.37 181.067 254.819 181.067 255.373C181.067 256.33 180.426 257.457 179.611 257.939C179.346 258.093 179.076 258.172 178.825 258.172L178.821 258.175ZM179.907 254.989C179.839 254.989 179.736 255.015 179.607 255.091C179.089 255.396 178.634 256.195 178.634 256.802C178.634 257.031 178.696 257.146 178.75 257.178C178.802 257.208 178.931 257.205 179.127 257.093C179.646 256.788 180.1 255.985 180.1 255.379C180.1 255.153 180.039 255.035 179.984 255.005C179.968 254.996 179.942 254.989 179.907 254.989Z" fill="#222222"/>
</g>
<g clip-path="url(#clip2_5856_172872)">
<path d="M183.281 215.932C183.161 215.932 183.036 215.904 182.921 215.839L177.049 212.544C176.829 212.418 176.689 212.189 176.689 211.937C176.689 211.685 176.829 211.456 177.049 211.33L182.921 208.035C183.266 207.839 183.703 207.956 183.904 208.292C184.101 208.628 183.986 209.053 183.64 209.249L178.848 211.942L183.64 214.635C183.986 214.826 184.101 215.256 183.904 215.592C183.77 215.816 183.53 215.942 183.281 215.942V215.932Z" fill="#222222"/>
<path d="M171.719 215.834C171.47 215.834 171.23 215.708 171.096 215.484C170.899 215.148 171.014 214.724 171.36 214.528L175.974 211.937L171.36 209.347C171.014 209.155 170.899 208.726 171.096 208.39C171.292 208.054 171.734 207.942 172.079 208.133L177.773 211.33C177.994 211.456 178.133 211.685 178.133 211.937C178.133 212.189 177.994 212.418 177.773 212.544L172.079 215.741C171.964 215.806 171.844 215.834 171.719 215.834Z" fill="#222222"/>
</g>
</g>
<g clip-path="url(#clip3_5856_172872)">
<path d="M30.9855 233.736C30.8586 233.736 30.7266 233.707 30.6048 233.637L24.3915 230.15C24.158 230.017 24.0107 229.775 24.0107 229.508C24.0107 229.242 24.158 229 24.3915 228.866L30.6048 225.379C30.9703 225.172 31.4322 225.295 31.6454 225.651C31.8535 226.006 31.7317 226.456 31.3662 226.663L26.2951 229.513L31.3662 232.363C31.7317 232.566 31.8535 233.02 31.6454 233.376C31.5033 233.613 31.2495 233.746 30.9855 233.746V233.736Z" fill="#222222"/>
<path d="M18.7515 233.632C18.4875 233.632 18.2337 233.499 18.0916 233.262C17.8835 232.906 18.0053 232.457 18.3708 232.249L23.2541 229.508L18.3708 226.767C18.0053 226.565 17.8835 226.11 18.0916 225.755C18.2997 225.399 18.7667 225.28 19.1322 225.483L25.1577 228.866C25.3912 229 25.5384 229.242 25.5384 229.508C25.5384 229.775 25.3912 230.017 25.1577 230.15L19.1322 233.534C19.0104 233.603 18.8835 233.632 18.7515 233.632Z" fill="#222222"/>
</g>
<g clip-path="url(#clip4_5856_172872)">
<path d="M387.599 353.313C387.472 353.313 387.34 353.283 387.218 353.214L381.005 349.727C380.771 349.594 380.624 349.352 380.624 349.085C380.624 348.818 380.771 348.576 381.005 348.443L387.218 344.956C387.584 344.749 388.045 344.872 388.259 345.228C388.467 345.583 388.345 346.033 387.979 346.24L382.908 349.09L387.979 351.94C388.345 352.142 388.467 352.597 388.259 352.952C388.117 353.189 387.863 353.323 387.599 353.323V353.313Z" fill="#222222"/>
<path d="M375.365 353.209C375.101 353.209 374.847 353.076 374.705 352.839C374.497 352.483 374.619 352.034 374.984 351.826L379.867 349.085L374.984 346.344C374.619 346.141 374.497 345.687 374.705 345.331C374.913 344.976 375.38 344.857 375.745 345.06L381.771 348.443C382.004 348.576 382.152 348.818 382.152 349.085C382.152 349.352 382.004 349.594 381.771 349.727L375.745 353.11C375.624 353.18 375.497 353.209 375.365 353.209Z" fill="#222222"/>
</g>
<path d="M329.371 284.672V346.242L304.551 331.915C304.551 330.208 303.353 328.124 301.867 327.274C300.388 326.417 299.184 327.112 299.184 328.825L242.169 295.914V234.337C242.169 233.026 242.612 232.115 243.313 231.744C243.864 231.445 244.571 231.486 245.35 231.936L326.19 278.598C327.945 279.611 329.371 282.33 329.371 284.678V284.672ZM302.137 298.16C302.137 287.726 294.81 275.035 285.77 269.818C276.73 264.601 269.403 268.83 269.403 279.269C269.403 289.709 276.73 302.394 285.77 307.611C294.816 312.827 302.137 308.599 302.137 298.16Z" fill="white"/>
<path d="M323.351 348.56V349.608C323.351 350.332 322.907 350.668 322.362 350.356L319.079 348.458C318.534 348.14 318.091 347.302 318.091 346.571V345.529C318.091 344.804 318.534 344.469 319.079 344.78L322.362 346.679C322.907 346.996 323.351 347.835 323.351 348.56Z" fill="white"/>
<path d="M304.551 331.915L329.371 346.242V354.711C329.371 355.986 328.952 356.891 328.287 357.274C327.73 357.61 326.993 357.574 326.196 357.118L245.356 310.456C243.601 309.443 242.175 306.724 242.175 304.382V295.913L299.189 328.825C299.189 330.532 300.388 332.616 301.873 333.467C303.359 334.317 304.557 333.628 304.557 331.915H304.551ZM323.356 349.602V348.554C323.356 347.829 322.913 346.99 322.368 346.673L319.085 344.774C318.54 344.457 318.096 344.792 318.096 345.523V346.565C318.096 347.29 318.54 348.134 319.085 348.452L322.368 350.35C322.913 350.668 323.356 350.332 323.356 349.602ZM257.733 311.336C257.817 311.324 257.817 311.18 257.733 311.066L255.193 307.76C255.097 307.647 254.983 307.653 254.983 307.772V311.456C254.983 311.582 255.097 311.725 255.193 311.707L257.733 311.336ZM250.412 306.976C250.412 305.916 249.669 304.628 248.753 304.101C247.836 303.574 247.093 303.999 247.093 305.059C247.093 306.119 247.836 307.407 248.753 307.934C249.669 308.461 250.412 308.036 250.412 306.976Z" fill="white"/>
<path d="M304.552 331.915C304.552 333.622 303.354 334.323 301.868 333.467C300.383 332.61 299.185 330.532 299.185 328.825C299.185 327.118 300.383 326.417 301.868 327.274C303.348 328.13 304.552 330.208 304.552 331.915Z" fill="white"/>
<path d="M285.77 269.818C294.816 275.035 302.137 287.726 302.137 298.16C302.137 308.593 294.81 312.827 285.77 307.611C276.73 302.394 269.403 289.703 269.403 279.269C269.403 268.836 276.73 264.601 285.77 269.818ZM293.588 293.841C293.984 293.781 293.984 293.129 293.588 292.619L281.936 277.448C281.523 276.909 280.978 276.939 280.978 277.508V294.392C280.978 294.961 281.517 295.62 281.936 295.56L293.588 293.841Z" fill="#E4282B"/>
<path d="M293.587 292.619C293.983 293.129 293.983 293.787 293.587 293.841L281.935 295.56C281.522 295.62 280.977 294.961 280.977 294.392V277.508C280.977 276.939 281.516 276.903 281.935 277.448L293.587 292.619Z" fill="#222222"/>
<path d="M257.734 311.073C257.818 311.186 257.818 311.33 257.734 311.342L255.194 311.713C255.098 311.731 254.984 311.588 254.984 311.462V307.778C254.984 307.659 255.098 307.653 255.194 307.766L257.734 311.073Z" fill="#222222"/>
<path d="M248.746 304.107C249.663 304.634 250.406 305.922 250.406 306.982C250.406 308.042 249.663 308.467 248.746 307.94C247.83 307.413 247.087 306.125 247.087 305.065C247.087 304.005 247.83 303.58 248.746 304.107Z" fill="#222222"/>
<path d="M243.312 231.744L250.555 227.456C251.113 227.126 251.849 227.15 252.652 227.617L333.492 274.28C335.248 275.292 336.673 278.011 336.673 280.359V350.404C336.673 351.674 336.254 352.573 335.589 352.968L328.286 357.286C328.957 356.903 329.371 355.998 329.371 354.723V284.672C329.371 282.33 327.951 279.611 326.189 278.592L245.349 231.936C244.571 231.486 243.864 231.444 243.312 231.744Z" fill="#EAECF0"/>
<path d="M327.453 358.4C326.908 358.4 326.327 358.232 325.746 357.903L244.9 311.24C242.863 310.072 241.27 307.06 241.27 304.388V234.337C241.27 232.732 241.857 231.498 242.887 230.947C243.732 230.492 244.762 230.558 245.793 231.151L326.633 277.814C328.669 278.988 330.263 282 330.263 284.666V354.711C330.263 356.268 329.706 357.484 328.729 358.047C328.334 358.28 327.903 358.394 327.447 358.394L327.453 358.4ZM244.091 232.451C243.971 232.451 243.852 232.475 243.744 232.534C243.324 232.756 243.073 233.445 243.073 234.337V304.382C243.073 306.401 244.325 308.826 245.799 309.677L326.639 356.34C326.914 356.496 327.435 356.729 327.819 356.502H327.831C328.226 356.268 328.466 355.585 328.466 354.711V284.672C328.466 282.653 327.214 280.227 325.734 279.371L244.9 232.714C244.672 232.582 244.373 232.451 244.091 232.451Z" fill="#222222"/>
<path d="M293.078 310.749C290.676 310.749 288.034 309.959 285.314 308.389C276.041 303.035 268.498 289.972 268.498 279.269C268.498 273.885 270.361 269.848 273.74 267.896C277.119 265.943 281.552 266.35 286.207 269.039C295.481 274.388 303.023 287.457 303.023 298.16C303.023 303.544 301.16 307.581 297.781 309.533C296.373 310.348 294.786 310.749 293.072 310.749H293.078ZM278.461 268.47C277.059 268.47 275.771 268.794 274.645 269.447C271.841 271.064 270.301 274.55 270.301 279.263C270.301 289.397 277.442 301.765 286.219 306.832C290.305 309.186 294.097 309.593 296.895 307.976C299.698 306.359 301.238 302.873 301.238 298.16C301.238 288.026 294.097 275.658 285.32 270.591C282.882 269.183 280.546 268.47 278.467 268.47H278.461Z" fill="#222222"/>
<path d="M281.882 296.458C281.535 296.458 281.181 296.321 280.876 296.051C280.396 295.638 280.085 294.985 280.085 294.392V277.508C280.085 276.897 280.408 276.406 280.93 276.226C281.517 276.023 282.182 276.286 282.655 276.897L294.307 292.068C294.762 292.655 294.906 293.404 294.685 293.967C294.517 294.38 294.163 294.668 293.732 294.728L282.08 296.446C282.02 296.458 281.954 296.458 281.894 296.458H281.882ZM281.876 278.844V294.392C281.876 294.452 281.93 294.566 281.996 294.644L292.785 293.051L281.876 278.844Z" fill="#222222"/>
<path d="M299.183 329.723C299.033 329.723 298.877 329.687 298.733 329.603L241.719 296.692C241.287 296.447 241.144 295.896 241.389 295.464C241.635 295.033 242.186 294.889 242.617 295.135L299.632 328.046C300.063 328.292 300.207 328.843 299.961 329.274C299.794 329.562 299.494 329.723 299.183 329.723Z" fill="#222222"/>
<path d="M329.365 347.14C329.215 347.14 329.059 347.104 328.916 347.02L304.096 332.694C303.664 332.448 303.52 331.897 303.766 331.466C304.012 331.035 304.563 330.891 304.994 331.137L329.814 345.463C330.245 345.709 330.389 346.26 330.144 346.691C329.976 346.978 329.676 347.14 329.365 347.14Z" fill="#222222"/>
<path d="M303.071 334.73C302.544 334.73 301.975 334.569 301.417 334.245C299.662 333.233 298.284 330.849 298.284 328.825C298.284 327.681 298.733 326.765 299.518 326.309C300.303 325.854 301.322 325.926 302.31 326.495C304.065 327.507 305.443 329.891 305.443 331.915C305.443 333.059 304.994 333.976 304.209 334.431C303.868 334.629 303.478 334.73 303.065 334.73H303.071ZM300.675 327.807C300.579 327.807 300.489 327.825 300.423 327.867C300.213 327.986 300.087 328.346 300.087 328.825C300.087 330.22 301.112 331.993 302.322 332.688C302.735 332.928 303.107 332.993 303.316 332.874C303.526 332.754 303.652 332.395 303.652 331.915C303.652 330.52 302.628 328.747 301.417 328.052C301.136 327.891 300.878 327.807 300.675 327.807Z" fill="#222222"/>
<path d="M322.757 351.369C322.481 351.369 322.188 351.291 321.912 351.129L318.629 349.23C317.808 348.757 317.191 347.613 317.191 346.565V345.523C317.191 344.81 317.479 344.235 317.982 343.948C318.444 343.684 319.007 343.702 319.528 344.002L322.811 345.9C323.632 346.374 324.249 347.517 324.249 348.56V349.608C324.249 350.32 323.961 350.895 323.458 351.183C323.242 351.309 323.003 351.369 322.757 351.369ZM318.989 345.775V346.577C318.989 347.002 319.282 347.541 319.528 347.685L322.451 349.374V348.572C322.451 348.146 322.158 347.607 321.912 347.47L318.989 345.781V345.775Z" fill="#222222"/>
<path d="M255.18 312.612C254.941 312.612 254.701 312.522 254.509 312.36C254.246 312.139 254.09 311.803 254.09 311.462V307.778C254.09 307.347 254.347 306.982 254.737 306.838C255.144 306.694 255.6 306.838 255.893 307.203L258.445 310.527C258.697 310.863 258.763 311.288 258.619 311.641C258.487 311.965 258.2 312.186 257.852 312.234L255.33 312.606C255.282 312.612 255.234 312.618 255.18 312.618V312.612ZM255.881 310.138V310.701L256.271 310.641L255.881 310.132V310.138Z" fill="#222222"/>
<path d="M249.495 309.06C249.112 309.06 248.699 308.946 248.303 308.713C247.099 308.018 246.194 306.449 246.194 305.059C246.194 304.227 246.536 303.55 247.129 303.208C247.722 302.867 248.477 302.909 249.202 303.322C250.406 304.017 251.311 305.586 251.311 306.976C251.311 307.808 250.969 308.485 250.376 308.826C250.112 308.982 249.813 309.054 249.495 309.054V309.06ZM248.016 304.778C248.016 304.778 247.986 304.885 247.986 305.059C247.986 305.808 248.549 306.784 249.196 307.155C249.351 307.245 249.441 307.257 249.477 307.263C249.477 307.239 249.507 307.155 249.507 306.982C249.507 306.239 248.944 305.257 248.297 304.885C248.141 304.796 248.052 304.784 248.016 304.778Z" fill="#222222"/>
<path d="M262.147 316.421C261.649 316.421 261.248 316.02 261.248 315.522V311.989C261.248 311.492 261.649 311.09 262.147 311.09C262.644 311.09 263.045 311.492 263.045 311.989V315.522C263.045 316.02 262.644 316.421 262.147 316.421Z" fill="#222222"/>
<path d="M264.213 317.613C263.716 317.613 263.314 317.212 263.314 316.714V313.181C263.314 312.684 263.716 312.282 264.213 312.282C264.71 312.282 265.112 312.684 265.112 313.181V316.714C265.112 317.212 264.71 317.613 264.213 317.613Z" fill="#222222"/>
<path d="M328.286 358.179C327.98 358.179 327.681 358.023 327.513 357.735C327.261 357.31 327.399 356.759 327.83 356.508L335.127 352.189C335.529 351.95 335.774 351.285 335.774 350.404V280.353C335.774 278.335 334.522 275.909 333.042 275.053L252.196 228.396C251.921 228.234 251.4 228.001 251.01 228.234L243.719 232.546C243.294 232.804 242.743 232.666 242.485 232.241C242.228 231.816 242.366 231.265 242.791 231.007L250.094 226.689C250.968 226.174 252.035 226.228 253.095 226.845L333.935 273.507C335.972 274.681 337.565 277.694 337.565 280.359V350.398C337.565 351.944 337.008 353.16 336.038 353.734L328.741 358.053C328.597 358.137 328.441 358.179 328.286 358.179Z" fill="#222222"/>
<path d="M132.842 180.925V249.813L44.1123 198.6V129.712L132.842 180.93V180.925ZM122.186 231.291V218.381L92.5387 201.268V214.178L122.186 231.291ZM115.221 185.148C115.221 183.472 114.049 181.438 112.596 180.601L104.677 176.029C103.95 175.613 103.292 175.569 102.817 175.84C102.342 176.116 102.052 176.707 102.052 177.545C102.052 179.22 103.224 181.254 104.677 182.092L112.596 186.663C113.323 187.08 113.981 187.123 114.456 186.852C114.931 186.581 115.221 185.99 115.221 185.148ZM97.3 174.804C97.3 173.129 96.1278 171.095 94.6748 170.257L57.3935 148.737C56.6669 148.316 56.0082 148.277 55.5335 148.549C55.0589 148.825 54.7682 149.411 54.7682 150.253C54.7682 151.929 55.9404 153.962 57.3935 154.8L94.6748 176.32C95.4013 176.736 96.06 176.78 96.5347 176.504C97.0094 176.228 97.3 175.642 97.3 174.804ZM84.4112 209.486V196.576L54.7682 179.463V192.372L84.4112 209.486Z" fill="white"/>
<path d="M122.187 218.381V231.291L92.5391 214.178V201.268L122.187 218.381Z" fill="#222222"/>
<path d="M112.596 180.601C114.049 181.438 115.222 183.472 115.222 185.148C115.222 185.985 114.926 186.576 114.456 186.852C113.986 187.128 113.323 187.085 112.596 186.663L104.677 182.092C103.224 181.254 102.052 179.221 102.052 177.545C102.052 176.707 102.347 176.117 102.817 175.841C103.292 175.569 103.95 175.608 104.677 176.029L112.596 180.601Z" fill="#EAECF0"/>
<path d="M94.676 170.257C96.1291 171.095 97.3013 173.129 97.3013 174.804C97.3013 175.642 97.0058 176.233 96.536 176.504C96.0662 176.775 95.4026 176.736 94.676 176.32L57.3948 154.8C55.9417 153.963 54.7695 151.929 54.7695 150.253C54.7695 149.415 55.065 148.825 55.5348 148.549C56.0095 148.278 56.6682 148.316 57.3948 148.738L94.676 170.257Z" fill="#EAECF0"/>
<path d="M84.4124 196.576V209.486L54.7695 192.377V179.467L84.4124 196.576Z" fill="#E4282B"/>
<path d="M132.842 250.539C132.716 250.539 132.591 250.505 132.479 250.442L43.749 199.224C43.5262 199.094 43.3857 198.856 43.3857 198.595V129.712C43.3857 129.45 43.5262 129.213 43.749 129.082C43.9718 128.951 44.2527 128.951 44.4756 129.082L133.206 180.3C133.428 180.431 133.569 180.668 133.569 180.93V249.818C133.569 250.079 133.428 250.317 133.206 250.447C133.094 250.51 132.968 250.544 132.842 250.544V250.539ZM44.8388 198.178L132.116 248.554V181.346L44.8388 130.966V198.178Z" fill="#222222"/>
<path d="M84.4114 210.212C84.2855 210.212 84.1596 210.178 84.0482 210.115L54.4053 193.007C54.1825 192.876 54.042 192.639 54.042 192.377V179.467C54.042 179.206 54.1825 178.969 54.4053 178.838C54.6281 178.707 54.909 178.707 55.1318 178.838L84.7747 195.946C84.9975 196.077 85.138 196.314 85.138 196.576V209.485C85.138 209.747 84.9975 209.984 84.7747 210.115C84.6633 210.178 84.5374 210.212 84.4114 210.212ZM55.4951 191.956L83.6849 208.226V196.992L55.4951 180.722V191.956Z" fill="#222222"/>
<path d="M122.186 232.017C122.06 232.017 121.934 231.983 121.823 231.92L92.1748 214.807C91.952 214.676 91.8115 214.439 91.8115 214.178V201.268C91.8115 201.006 91.952 200.769 92.1748 200.638C92.3976 200.508 92.6785 200.508 92.9013 200.638L122.549 217.751C122.772 217.882 122.912 218.119 122.912 218.381V231.291C122.912 231.552 122.772 231.79 122.549 231.92C122.438 231.983 122.312 232.017 122.186 232.017ZM93.2646 213.756L121.459 230.032V218.797L93.2646 202.522V213.756Z" fill="#222222"/>
<path d="M95.8569 177.405C95.3628 177.405 94.8349 177.25 94.3118 176.949L57.0305 155.43C55.3546 154.461 54.042 152.19 54.042 150.253C54.042 149.188 54.4537 148.336 55.1706 147.924C55.8874 147.507 56.8319 147.575 57.757 148.108L95.0383 169.628C96.7142 170.596 98.0268 172.867 98.0268 174.804C98.0268 175.869 97.6151 176.722 96.8983 177.133C96.5883 177.313 96.2347 177.405 95.8569 177.405ZM56.2168 149.101C56.0957 149.101 55.9843 149.125 55.8971 149.178C55.6404 149.328 55.4951 149.716 55.4951 150.253C55.4951 151.667 56.5316 153.464 57.757 154.171L95.0383 175.69C95.5033 175.957 95.915 176.024 96.1717 175.879C96.4284 175.729 96.5737 175.342 96.5737 174.804C96.5737 173.39 95.5372 171.594 94.3118 170.887L57.0305 149.367C56.7302 149.193 56.4493 149.105 56.2216 149.105L56.2168 149.101Z" fill="#222222"/>
<path d="M113.778 187.748C113.289 187.748 112.756 187.593 112.233 187.293L104.314 182.721C102.638 181.753 101.325 179.482 101.325 177.545C101.325 176.48 101.737 175.627 102.454 175.216C103.171 174.799 104.115 174.867 105.04 175.4L112.96 179.971C114.635 180.939 115.948 183.211 115.948 185.148C115.948 186.213 115.536 187.065 114.819 187.477C114.51 187.656 114.156 187.748 113.778 187.748ZM103.5 176.397C103.379 176.397 103.267 176.421 103.18 176.475C102.924 176.625 102.778 177.012 102.778 177.55C102.778 178.964 103.815 180.76 105.04 181.467L112.96 186.039C113.42 186.305 113.836 186.373 114.093 186.227C114.35 186.077 114.495 185.69 114.495 185.152C114.495 183.738 113.458 181.942 112.233 181.235L104.314 176.664C104.013 176.489 103.732 176.402 103.5 176.402V176.397Z" fill="#222222"/>
<path d="M85.825 178.591C85.7039 178.591 85.578 178.562 85.4617 178.494L56.1385 161.57C55.7898 161.371 55.6735 160.926 55.8721 160.577C56.0707 160.228 56.5163 160.112 56.865 160.311L86.1883 177.235C86.537 177.434 86.6532 177.879 86.4547 178.228C86.319 178.46 86.0769 178.591 85.825 178.591Z" fill="#222222"/>
<path d="M110.997 197.617C110.876 197.617 110.75 197.588 110.634 197.52L56.1434 166.068C55.7946 165.87 55.6784 165.424 55.877 165.076C56.0756 164.727 56.5212 164.611 56.8699 164.809L111.361 196.261C111.709 196.459 111.826 196.905 111.627 197.254C111.491 197.486 111.249 197.617 110.997 197.617Z" fill="#222222"/>
<path d="M106.803 199.694C106.682 199.694 106.556 199.665 106.439 199.597L56.1434 170.567C55.7946 170.368 55.6784 169.923 55.877 169.574C56.0756 169.226 56.5212 169.109 56.8699 169.308L107.166 198.338C107.515 198.537 107.631 198.982 107.432 199.331C107.297 199.563 107.055 199.694 106.803 199.694Z" fill="#222222"/>
<path d="M67.4357 193.447V194.924L66.249 194.237V192.745L64.9219 189.404L66.1715 190.126L66.8932 191.946L67.6198 190.958L68.7629 191.622L67.4357 193.447Z" fill="#222222"/>
<path d="M71.4948 195.98L69.5816 194.876C69.6203 195.021 69.6881 195.152 69.785 195.268C69.877 195.384 69.9981 195.486 70.1386 195.568C70.2597 195.636 70.3614 195.68 70.4437 195.689C70.5261 195.704 70.6181 195.689 70.715 195.665L71.3107 196.702C71.0443 196.886 70.6423 196.827 70.1095 196.517C69.7753 196.324 69.4847 196.087 69.2328 195.801C68.981 195.515 68.7872 195.205 68.6468 194.876C68.5111 194.547 68.4385 194.222 68.4385 193.907C68.4385 193.593 68.5063 193.346 68.6419 193.176C68.7775 193.007 68.9616 192.92 69.1989 192.915C69.4363 192.915 69.7027 192.997 69.9981 193.167C70.279 193.326 70.5309 193.539 70.7586 193.801C70.9862 194.062 71.1703 194.353 71.3059 194.682C71.4415 195.007 71.5093 195.346 71.5093 195.689C71.5093 195.709 71.5045 195.81 71.4948 195.99V195.98ZM69.7123 194.004C69.6348 194.033 69.5864 194.111 69.5622 194.232L70.4486 194.745C70.4244 194.6 70.3759 194.469 70.2984 194.348C70.2209 194.227 70.1241 194.135 70.0078 194.067C69.8916 193.999 69.7947 193.98 69.7172 194.009L69.7123 194.004Z" fill="#222222"/>
<path d="M72.2494 197.67C72.0218 197.481 71.8377 197.297 71.6973 197.123L72.0073 196.435C72.1332 196.6 72.2882 196.755 72.4626 196.905C72.6369 197.055 72.8065 197.181 72.9711 197.273C73.1019 197.35 73.1939 197.389 73.2472 197.394C73.3005 197.399 73.3247 197.375 73.3247 197.326C73.3247 197.278 73.2908 197.224 73.2278 197.166C73.16 197.108 73.0535 197.026 72.9082 196.924C72.6854 196.764 72.4916 196.614 72.3366 196.474C72.1816 196.333 72.0412 196.159 71.9201 195.951C71.799 195.743 71.7409 195.51 71.7409 195.249C71.7409 195.045 71.7941 194.89 71.9007 194.789C72.0073 194.687 72.1671 194.648 72.3802 194.677C72.5933 194.702 72.85 194.803 73.1455 194.973C73.3538 195.094 73.5572 195.234 73.7558 195.394C73.9544 195.554 74.1239 195.718 74.2644 195.883L73.9544 196.571C73.7122 196.275 73.4458 196.048 73.16 195.878C72.913 195.733 72.7871 195.714 72.7871 195.815C72.7871 195.864 72.821 195.922 72.8888 195.98C72.9566 196.038 73.0632 196.12 73.2036 196.222C73.4264 196.382 73.6202 196.532 73.7752 196.672C73.9302 196.813 74.0706 196.987 74.1869 197.195C74.308 197.404 74.3661 197.636 74.3661 197.898C74.3661 198.096 74.3128 198.246 74.2063 198.343C74.0997 198.445 73.9399 198.479 73.7219 198.454C73.5088 198.425 73.2472 198.324 72.9421 198.149C72.7096 198.014 72.4771 197.849 72.2494 197.66V197.67Z" fill="#222222"/>
<path d="M107.418 213.936V218.003L106.445 217.437L105.103 214.817V216.667L103.945 215.999V211.931L104.924 212.493L106.261 215.112V213.267L107.418 213.936Z" fill="white"/>
<path d="M108.59 218.521C108.348 218.241 108.154 217.935 108.019 217.606C107.883 217.277 107.811 216.952 107.811 216.638C107.811 216.323 107.878 216.076 108.019 215.906C108.154 215.737 108.348 215.65 108.59 215.655C108.833 215.655 109.109 215.742 109.414 215.921C109.724 216.1 110 216.328 110.242 216.609C110.484 216.889 110.673 217.195 110.809 217.519C110.944 217.848 111.012 218.168 111.012 218.487C111.012 218.807 110.944 219.049 110.809 219.224C110.673 219.393 110.484 219.48 110.242 219.48C110 219.48 109.724 219.393 109.414 219.214C109.109 219.04 108.833 218.807 108.59 218.526V218.521ZM109.733 218.207C109.816 218.144 109.859 218.013 109.859 217.819C109.859 217.626 109.816 217.446 109.733 217.287C109.651 217.127 109.545 217.015 109.414 216.938C109.283 216.86 109.176 216.856 109.089 216.914C109.007 216.972 108.963 217.103 108.963 217.301C108.963 217.5 109.007 217.679 109.089 217.834C109.172 217.989 109.278 218.11 109.414 218.187C109.545 218.265 109.651 218.27 109.733 218.207Z" fill="white"/>
<g clip-path="url(#clip5_5856_172872)">
<path d="M124.299 310.013V319.622C124.299 320.592 123.595 321.612 122.224 322.411L56.4731 360.584C53.956 362.044 50.1577 362.201 47.9823 360.938L11.678 339.861C10.6933 339.29 10.2109 338.522 10.2109 337.719V328.185C10.2361 328.963 10.7234 329.696 11.678 330.252L47.9823 351.329C50.1577 352.592 53.956 352.435 56.4731 350.975L122.224 312.802C123.595 312.003 124.299 310.983 124.299 310.013Z" fill="#222222"/>
<path d="M122.832 307.871C123.817 308.442 124.299 309.21 124.299 310.013C124.299 310.983 123.596 312.003 122.224 312.802L61.814 347.873L17.6318 322.219L78.0419 287.147C80.554 285.687 84.3572 285.53 86.5327 286.793L122.837 307.871H122.832ZM99.5251 316.717L106.398 312.726L77.9063 296.185L71.0332 300.176L99.5251 316.717ZM78.4338 323.674C81.0262 318.056 75.2837 312.286 65.6122 310.781C55.9408 309.275 45.998 312.61 43.4056 318.228C40.8131 323.84 46.5557 329.615 56.2272 331.121C65.8986 332.626 75.8413 329.297 78.4338 323.679V323.674Z" fill="#F4D2D2"/>
<path d="M106.397 312.726L99.524 316.717L71.0322 300.176L77.9052 296.185L106.397 312.726Z" fill="white"/>
<path d="M65.6125 310.781C75.2839 312.286 81.0265 318.056 78.4341 323.674C75.8416 329.287 65.8989 332.621 56.2274 331.115C46.556 329.61 40.8185 323.84 43.4059 318.223C45.9983 312.61 55.9411 309.275 65.6125 310.776V310.781ZM72.5257 322.759C74.2439 319.036 70.4407 315.211 64.0249 314.211C57.6141 313.216 51.0224 315.424 49.3092 319.147C47.591 322.865 51.3942 326.695 57.81 327.69C64.2208 328.69 70.8125 326.478 72.5257 322.759Z" fill="#E4282B"/>
<path d="M64.03 314.206C70.4458 315.206 74.249 319.031 72.5308 322.754C70.8125 326.473 64.2209 328.685 57.8151 327.685C51.3993 326.69 47.6011 322.86 49.3143 319.142C51.0326 315.419 57.6242 313.211 64.03 314.206Z" fill="#222222"/>
<path d="M61.8137 347.873L56.4731 350.975C53.956 352.435 50.1577 352.592 47.9823 351.329L11.678 330.252C10.7234 329.696 10.2361 328.963 10.2109 328.185V328.109C10.2109 327.139 10.9093 326.119 12.2859 325.321L17.6316 322.219L61.8137 347.873Z" fill="white"/>
<path d="M51.6651 352.632C50.1981 352.632 48.7964 352.334 47.7514 351.728L11.447 330.651C10.3869 330.034 9.78405 329.165 9.75391 328.205V328.114C9.75391 326.937 10.5929 325.775 12.06 324.932L77.8107 286.758C80.4433 285.227 84.4576 285.071 86.7536 286.404L123.063 307.482C124.158 308.118 124.761 309.017 124.761 310.023C124.761 311.195 123.922 312.357 122.455 313.206L56.7043 351.379C55.2674 352.213 53.4236 352.637 51.6702 352.637H51.6651V352.632ZM10.6633 328.15V328.17C10.6834 328.812 11.1154 329.398 11.9042 329.857L48.2085 350.935C50.2534 352.122 53.8557 351.965 56.2421 350.581L121.993 312.407C123.168 311.725 123.842 310.856 123.842 310.018C123.842 309.346 123.415 308.745 122.601 308.275L86.2964 287.197C84.2516 286.01 80.6493 286.167 78.2629 287.551L12.5122 325.725C11.3365 326.407 10.6633 327.276 10.6633 328.114V328.155V328.15Z" fill="#222222"/>
<path d="M61.8137 348.328C61.7384 348.328 61.658 348.308 61.5877 348.267L17.4005 322.613C17.1844 322.486 17.1091 322.203 17.2347 321.986C17.3603 321.764 17.6416 321.693 17.8577 321.819L62.0448 347.474C62.2609 347.6 62.3362 347.883 62.2106 348.1C62.1252 348.247 61.9745 348.328 61.8137 348.328Z" fill="#222222"/>
<path d="M39.0149 340.704C38.9395 340.704 38.8591 340.684 38.7888 340.644L30.5392 335.854C30.3231 335.728 30.2478 335.445 30.3734 335.228C30.499 335.005 30.7803 334.935 30.9964 335.061L39.246 339.85C39.462 339.977 39.5374 340.26 39.4118 340.477C39.3264 340.623 39.1756 340.704 39.0149 340.704Z" fill="#222222"/>
<path d="M99.525 317.177C99.4446 317.177 99.3693 317.156 99.2989 317.116L70.8071 300.575C70.6665 300.495 70.5811 300.343 70.5811 300.176C70.5811 300.01 70.6665 299.863 70.8071 299.777L77.6801 295.786C77.8208 295.705 77.9967 295.705 78.1373 295.786L106.629 312.327C106.77 312.407 106.855 312.559 106.855 312.726C106.855 312.892 106.77 313.039 106.629 313.125L99.7561 317.116C99.6858 317.156 99.6054 317.177 99.5301 317.177H99.525ZM71.9426 300.176L99.525 316.186L105.484 312.726L77.9062 296.716L71.9426 300.176Z" fill="#222222"/>
<path d="M51.6653 362.241C50.1982 362.241 48.7965 361.943 47.7515 361.337L11.4472 340.26C10.3519 339.623 9.74902 338.724 9.74902 337.719V328.109C9.74902 327.857 9.95501 327.65 10.2062 327.65C10.4574 327.65 10.6634 327.857 10.6634 328.109V337.719C10.6634 338.39 11.0905 338.992 11.9044 339.461L48.2087 360.539C50.2535 361.726 53.8558 361.569 56.2423 360.185L121.993 322.012C123.169 321.33 123.842 320.461 123.842 319.622V310.013C123.842 309.76 124.048 309.553 124.299 309.553C124.55 309.553 124.756 309.76 124.756 310.013V319.622C124.756 320.794 123.917 321.956 122.45 322.805L56.6995 360.978C55.2626 361.812 53.4187 362.236 51.6653 362.236V362.241Z" fill="#222222"/>
<path d="M60.8956 331.934C59.3281 331.934 57.7405 331.818 56.1579 331.57C49.9581 330.605 45.1098 327.877 43.1906 324.265C42.1154 322.244 42.0451 320.087 42.9947 318.03C45.6625 312.251 55.8363 308.795 65.6836 310.326C71.8834 311.291 76.7317 314.024 78.6509 317.631C79.726 319.652 79.7964 321.809 78.8468 323.866C76.6111 328.716 69.0749 331.929 60.8956 331.929V331.934ZM60.8956 310.882C53.068 310.882 45.9137 313.878 43.8186 318.424C42.9947 320.208 43.055 322.082 43.9894 323.84C45.778 327.2 50.3751 329.751 56.2935 330.671C65.764 332.146 75.5108 328.923 78.0178 323.492C78.8418 321.708 78.7815 319.834 77.847 318.076C76.0584 314.721 71.4613 312.165 65.5429 311.245C63.9905 311.003 62.433 310.887 60.8956 310.887V310.882Z" fill="#222222"/>
<path d="M60.8944 328.382C59.8494 328.382 58.7943 328.306 57.7392 328.14C53.5843 327.493 50.3286 325.654 49.0324 323.219C48.2939 321.835 48.2487 320.359 48.8968 318.95C50.6904 315.06 57.5081 312.731 64.0998 313.756C68.2597 314.403 71.5154 316.247 72.8116 318.682C73.5501 320.066 73.5954 321.542 72.9422 322.951C71.435 326.22 66.3807 328.387 60.8944 328.387V328.382ZM60.8944 314.423C55.7698 314.423 51.0873 316.373 49.7257 319.334C49.2032 320.471 49.2384 321.663 49.8363 322.784C50.9969 324.967 54.0063 326.629 57.8799 327.23C64.0947 328.2 70.4804 326.104 72.1132 322.557C72.6358 321.42 72.6006 320.228 72.0027 319.107C70.8421 316.924 67.8327 315.262 63.9541 314.656C62.9291 314.499 61.8992 314.418 60.8893 314.418L60.8944 314.423Z" fill="#222222"/>
<path d="M47.7269 307.593L-3.77539 277.695L5.98146 272.026L57.4888 301.929L47.7269 307.593Z" fill="#F4F0ED"/>
<path d="M47.7271 308.053C47.6467 308.053 47.5713 308.032 47.501 307.992L-4.00634 278.089C-4.14701 278.008 -4.23242 277.856 -4.23242 277.69C-4.23242 277.523 -4.14701 277.376 -4.00634 277.29L5.75051 271.627C5.89119 271.546 6.06703 271.546 6.20771 271.627L57.715 301.53C57.8557 301.611 57.9411 301.763 57.9411 301.929C57.9411 302.096 57.8557 302.243 57.715 302.329L47.9582 307.992C47.8878 308.032 47.8075 308.053 47.7321 308.053H47.7271ZM-2.86586 277.69L47.7271 307.062L56.5745 301.924L5.98162 272.552L-2.86586 277.69Z" fill="#222222"/>
<path d="M119.422 284.798C120.407 285.369 120.889 286.137 120.889 286.94C120.889 287.91 120.185 288.93 118.814 289.729L58.4038 324.8L14.2217 299.146L74.6267 264.074C77.1388 262.614 80.9421 262.457 83.1175 263.72L119.422 284.798ZM84.2931 299.479L102.988 288.622L74.4961 272.082L55.7963 282.939L84.2881 299.479H84.2931Z" fill="white"/>
<path d="M102.983 288.622L84.2887 299.474L55.7969 282.939L74.4967 272.082L102.983 288.622Z" fill="#F4D2D2"/>
<path d="M58.399 324.795L53.0583 327.897C50.5412 329.357 46.743 329.514 44.5675 328.251L8.26323 307.174C7.30865 306.618 6.82131 305.885 6.79619 305.107C6.76102 304.117 7.45937 303.061 8.87115 302.243L14.2168 299.141L58.399 324.795Z" fill="#222222"/>
<path d="M48.2548 329.554C46.7877 329.554 45.386 329.256 44.341 328.65L8.03666 307.573C6.97657 306.956 6.37368 306.087 6.34353 305.127C6.29832 303.92 7.13735 302.728 8.64458 301.854L74.3953 263.68C77.0279 262.149 81.0422 261.993 83.3382 263.326L119.648 284.404C120.743 285.04 121.341 285.94 121.341 286.945C121.341 288.117 120.502 289.279 119.04 290.128L53.2889 328.301C51.852 329.135 50.0082 329.559 48.2548 329.559V329.554ZM79.4244 263.316C77.8368 263.316 76.1588 263.705 74.8525 264.468L9.10178 302.642C7.89599 303.339 7.22276 304.233 7.2529 305.092C7.273 305.739 7.70507 306.32 8.49386 306.779L44.7982 327.857C46.843 329.044 50.4453 328.887 52.8317 327.503L118.582 289.33C119.758 288.648 120.431 287.779 120.431 286.94C120.431 286.268 120.004 285.667 119.19 285.197L82.886 264.12C81.9666 263.584 80.7257 263.321 79.4295 263.321H79.4244V263.316Z" fill="#222222"/>
<path d="M58.3976 325.255C58.3222 325.255 58.2418 325.235 58.1715 325.194L13.9894 299.54C13.7733 299.413 13.698 299.131 13.8236 298.913C13.9492 298.696 14.2305 298.62 14.4465 298.747L58.6287 324.401C58.8447 324.527 58.9201 324.81 58.7945 325.028C58.7091 325.174 58.5584 325.255 58.3976 325.255Z" fill="#222222"/>
<path d="M84.2877 299.934C84.2073 299.934 84.132 299.914 84.0616 299.873L55.5698 283.333C55.4292 283.252 55.3438 283.1 55.3438 282.934C55.3438 282.767 55.4292 282.62 55.5698 282.534L74.2696 271.678C74.4103 271.597 74.5861 271.597 74.7268 271.678L103.219 288.218C103.359 288.299 103.445 288.45 103.445 288.617C103.445 288.784 103.359 288.93 103.219 289.016L84.5239 299.873C84.4535 299.914 84.3731 299.934 84.2978 299.934H84.2877ZM56.7053 282.934L84.2877 298.944L102.068 288.617L74.4907 272.607L56.7053 282.934Z" fill="#222222"/>
<path d="M73.1646 303.541C73.0892 303.541 73.0089 303.521 72.9385 303.48L49.7472 290.017C49.5311 289.89 49.4558 289.607 49.5814 289.39C49.707 289.168 49.9883 289.097 50.2044 289.223L73.3957 302.687C73.6117 302.814 73.6871 303.096 73.5615 303.314C73.4761 303.46 73.3254 303.541 73.1646 303.541Z" fill="#222222"/>
<path d="M68.4312 306.284C68.3558 306.284 68.2755 306.264 68.2051 306.224L45.0138 292.76C44.7977 292.634 44.7224 292.351 44.848 292.133C44.9736 291.916 45.2549 291.84 45.471 291.967L68.6623 305.43C68.8784 305.557 68.9537 305.84 68.8281 306.057C68.7427 306.203 68.592 306.284 68.4312 306.284Z" fill="#222222"/>
<path d="M63.6988 309.033C63.6234 309.033 63.543 309.012 63.4727 308.972L40.2813 295.508C40.0653 295.382 39.9899 295.099 40.1155 294.882C40.2411 294.66 40.5225 294.589 40.7385 294.715L63.9299 308.179C64.1459 308.305 64.2213 308.588 64.0957 308.805C64.0103 308.952 63.8596 309.033 63.6988 309.033Z" fill="#222222"/>
<path d="M58.9654 311.781C58.89 311.781 58.8096 311.761 58.7393 311.72L35.5479 298.262C35.3319 298.135 35.2565 297.852 35.3821 297.635C35.5078 297.413 35.7891 297.342 36.0051 297.468L59.1965 310.927C59.4125 311.054 59.4879 311.336 59.3623 311.554C59.2769 311.7 59.1262 311.781 58.9654 311.781Z" fill="#222222"/>
<path d="M79.4742 262.907C81.0367 263.811 81.0367 265.281 79.4742 266.186C78.4492 266.777 77.0174 266.984 75.7061 266.797C75.0127 266.701 74.3546 266.499 73.817 266.186C73.2794 265.873 72.9227 265.494 72.7569 265.089C72.4404 264.332 72.7921 263.498 73.817 262.902C75.3795 261.998 77.9117 261.998 79.4691 262.902H79.4742V262.907Z" fill="white"/>
<path d="M75.7111 266.807C76.9119 269.485 74.852 273.102 72.6565 274.916L58.7949 266.868C61.9149 265.595 68.1448 264.397 72.757 265.095C72.9228 265.499 73.2795 265.883 73.8171 266.191C74.3546 266.499 75.0128 266.706 75.7061 266.802H75.7111V266.807Z" fill="#222222"/>
<path d="M73.8219 262.907C72.797 263.503 72.4453 264.337 72.7618 265.094C68.1447 264.397 61.9147 265.595 58.7998 266.868L72.6613 274.916C74.8569 273.102 76.9168 269.485 75.716 266.807C77.0223 266.989 78.4592 266.782 79.4841 266.191C81.0466 265.286 81.0466 263.816 79.4841 262.912C77.9216 262.003 75.3894 262.003 73.832 262.912H73.8219V262.907ZM86.9449 258.572C95.1493 263.331 95.1543 271.056 86.9449 275.82C78.7405 280.579 65.4366 280.579 57.2373 275.82C49.0329 271.056 49.0329 263.336 57.2373 258.572C65.4417 253.808 78.7456 253.808 86.9449 258.572Z" fill="#E4282B"/>
<path d="M76.6704 267.328C76.3288 267.328 75.9871 267.302 75.6455 267.257C74.8818 267.151 74.1684 266.924 73.5956 266.59C72.9827 266.236 72.5506 265.782 72.3446 265.271C71.9226 264.261 72.4049 263.205 73.5956 262.513C75.3089 261.518 77.9968 261.518 79.705 262.513C80.6043 263.038 81.1017 263.761 81.1017 264.549C81.1017 265.337 80.6043 266.065 79.705 266.585C78.876 267.065 77.7858 267.323 76.6704 267.323V267.328ZM76.6453 262.695C75.7007 262.695 74.7562 262.897 74.0478 263.306C73.259 263.766 72.9475 264.352 73.1837 264.918C73.3143 265.241 73.6107 265.544 74.0478 265.797C74.5201 266.07 75.118 266.262 75.7711 266.353C77.0171 266.529 78.3485 266.317 79.2478 265.802C79.8557 265.448 80.1923 265.009 80.1923 264.559C80.1923 264.11 79.8557 263.67 79.2478 263.316C78.5444 262.907 77.5948 262.7 76.6453 262.7V262.695Z" fill="#222222"/>
<path d="M72.6552 275.371C72.5748 275.371 72.4995 275.35 72.4291 275.31L58.5676 267.262C58.4168 267.176 58.3264 267.009 58.3415 266.832C58.3515 266.656 58.4621 266.504 58.6228 266.438C61.5569 265.241 67.9024 263.892 72.826 264.64C73.0772 264.675 73.248 264.913 73.2079 265.16C73.1727 265.413 72.9366 265.585 72.6904 265.544C68.3897 264.898 62.9637 265.903 59.8638 266.954L72.5999 274.35C74.7 272.476 76.2927 269.227 75.2878 266.989C75.1823 266.757 75.2878 266.489 75.519 266.383C75.7501 266.277 76.0214 266.383 76.1218 266.615C77.4784 269.647 75.0768 273.501 72.9416 275.264C72.8562 275.335 72.7557 275.371 72.6502 275.371H72.6552Z" fill="#222222"/>
<path d="M72.0881 279.837C66.6268 279.837 61.1656 278.629 57.0056 276.214C52.8909 273.825 50.62 270.622 50.625 267.191C50.625 263.761 52.8909 260.563 57.0056 258.173C65.3206 253.343 78.8556 253.343 87.1705 258.173C91.2852 260.563 93.5511 263.766 93.5511 267.191C93.5511 270.617 91.2852 273.825 87.1705 276.214C83.0105 278.629 77.5493 279.837 72.0881 279.837ZM72.0881 255.455C66.7926 255.455 61.4922 256.627 57.4628 258.966C53.6395 261.184 51.5394 264.104 51.5344 267.191C51.5344 270.278 53.6395 273.203 57.4628 275.421C65.5266 280.104 78.6496 280.099 86.7133 275.421C90.5366 273.203 92.6367 270.278 92.6367 267.196C92.6367 264.115 90.5316 261.189 86.7133 258.971C82.6789 256.627 77.3835 255.46 72.0881 255.46V255.455Z" fill="#222222"/>
</g>
<g clip-path="url(#clip6_5856_172872)">
<path d="M220.963 340.035C223.427 340.035 225.425 338.054 225.425 335.611C225.425 333.167 223.427 331.186 220.963 331.186C218.499 331.186 216.502 333.167 216.502 335.611C216.502 338.054 218.499 340.035 220.963 340.035Z" fill="white"/>
<path d="M220.964 340.74C218.113 340.74 215.792 338.438 215.792 335.611C215.792 332.783 218.113 330.482 220.964 330.482C223.815 330.482 226.135 332.783 226.135 335.611C226.135 338.438 223.815 340.74 220.964 340.74ZM220.964 331.891C218.894 331.891 217.213 333.558 217.213 335.611C217.213 337.663 218.894 339.331 220.964 339.331C223.033 339.331 224.715 337.663 224.715 335.611C224.715 333.558 223.033 331.891 220.964 331.891Z" fill="#222222"/>
<path d="M241.474 352.533C244.351 352.533 246.684 350.22 246.684 347.367C246.684 344.513 244.351 342.2 241.474 342.2C238.597 342.2 236.265 344.513 236.265 347.367C236.265 350.22 238.597 352.533 241.474 352.533Z" fill="white"/>
<path d="M241.47 353.224C238.207 353.224 235.55 350.589 235.55 347.353C235.55 344.117 238.207 341.482 241.47 341.482C244.733 341.482 247.39 344.117 247.39 347.353C247.39 350.589 244.733 353.224 241.47 353.224ZM241.47 342.891C238.988 342.891 236.971 344.892 236.971 347.353C236.971 349.814 238.988 351.815 241.47 351.815C243.951 351.815 245.969 349.814 245.969 347.353C245.969 344.892 243.951 342.891 241.47 342.891Z" fill="#222222"/>
<path d="M264.032 366.37C267.432 366.37 270.189 363.636 270.189 360.264C270.189 356.892 267.432 354.158 264.032 354.158C260.631 354.158 257.875 356.892 257.875 360.264C257.875 363.636 260.631 366.37 264.032 366.37Z" fill="white"/>
<path d="M264.032 367.079C260.243 367.079 257.165 364.026 257.165 360.269C257.165 356.511 260.243 353.459 264.032 353.459C267.821 353.459 270.899 356.511 270.899 360.269C270.899 364.026 267.821 367.079 264.032 367.079ZM264.032 354.868C261.03 354.868 258.586 357.291 258.586 360.269C258.586 363.247 261.03 365.67 264.032 365.67C267.035 365.67 269.479 363.247 269.479 360.269C269.479 357.291 267.035 354.868 264.032 354.868Z" fill="#222222"/>
<path d="M206.897 327.842C206.779 327.842 206.656 327.814 206.542 327.748L189.246 317.847C187.702 316.964 186.854 315.748 186.854 314.419C186.854 313.089 187.707 311.873 189.246 310.99L200.338 304.64C201.422 304.02 202.019 303.235 202.019 302.432C202.019 301.629 201.422 300.845 200.338 300.225L189.734 294.152C189.393 293.959 189.279 293.527 189.473 293.189C189.668 292.851 190.103 292.738 190.444 292.931L201.048 299.004C202.592 299.887 203.44 301.103 203.44 302.432C203.44 303.761 202.587 304.978 201.048 305.861L189.957 312.211C188.872 312.831 188.275 313.615 188.275 314.419C188.275 315.222 188.872 316.006 189.957 316.626L207.252 326.527C207.593 326.72 207.707 327.152 207.513 327.49C207.38 327.715 207.143 327.842 206.897 327.842Z" fill="#222222"/>
<path d="M206.897 327.842H200.475C200.082 327.842 199.765 327.527 199.765 327.138C199.765 326.748 200.082 326.433 200.475 326.433H206.187V323.46C206.187 323.07 206.504 322.755 206.897 322.755C207.29 322.755 207.607 323.07 207.607 323.46V327.138C207.607 327.527 207.29 327.842 206.897 327.842Z" fill="#222222"/>
<path d="M187.911 294.762C187.002 294.762 186.088 294.56 185.382 294.152C184.582 293.696 184.127 293.02 184.127 292.297C184.127 291.573 184.586 290.897 185.382 290.441C186.803 289.629 189.024 289.629 190.445 290.441C191.245 290.897 191.7 291.573 191.7 292.297C191.7 293.02 191.24 293.696 190.445 294.152C189.734 294.56 188.825 294.762 187.916 294.762H187.911ZM187.911 291.24C187.248 291.24 186.585 291.381 186.092 291.663C185.751 291.86 185.548 292.095 185.548 292.297C185.548 292.499 185.751 292.738 186.092 292.931C187.077 293.494 188.745 293.494 189.734 292.931C190.075 292.733 190.279 292.499 190.279 292.297C190.279 292.095 190.075 291.855 189.734 291.663C189.242 291.381 188.579 291.24 187.916 291.24H187.911Z" fill="#222222"/>
</g>
<g clip-path="url(#clip7_5856_172872)">
<path d="M213.408 369.243C213.408 369.301 213.373 369.359 213.3 369.402L193.414 380.778C193.335 380.824 193.227 380.844 193.117 380.838C193 380.835 192.878 380.806 192.779 380.752L172.985 369.428C172.883 369.37 172.831 369.295 172.831 369.223C172.831 369.163 172.866 369.108 172.942 369.065L179.715 365.189V369.235C179.715 369.694 180.021 370.152 180.632 370.502C181.856 371.203 183.839 371.203 185.065 370.502C185.676 370.152 185.982 369.694 185.982 369.235V364.517C185.982 364.058 185.676 363.599 185.065 363.25C184.712 363.048 184.299 362.906 183.859 362.82L189.989 359.311V363.357C189.989 363.815 190.295 364.274 190.906 364.626C192.129 365.328 194.115 365.328 195.338 364.626C195.95 364.274 196.256 363.815 196.256 363.357V359.311L202.386 362.82C201.946 362.904 201.529 363.048 201.18 363.25C200.569 363.602 200.263 364.061 200.263 364.52V369.238C200.263 369.697 200.569 370.155 201.18 370.505C202.403 371.206 204.389 371.206 205.612 370.505C206.224 370.155 206.53 369.697 206.53 369.238V365.192L213.256 369.041C213.361 369.102 213.411 369.177 213.411 369.246L213.408 369.243ZM196.253 375.107V370.389C196.253 369.93 195.947 369.471 195.336 369.122C194.11 368.421 192.126 368.421 190.903 369.122C190.292 369.474 189.986 369.93 189.986 370.389V375.104C189.986 375.563 190.292 376.022 190.903 376.374C192.126 377.075 194.11 377.075 195.336 376.374C195.947 376.022 196.253 375.563 196.253 375.104V375.107Z" fill="#E4282B"/>
<path d="M206.524 365.186V369.232C206.524 369.691 206.218 370.15 205.606 370.499C204.383 371.2 202.397 371.2 201.174 370.499C200.563 370.15 200.257 369.691 200.257 369.232V364.514C200.257 364.973 200.563 365.429 201.174 365.781C202.397 366.482 204.383 366.482 205.606 365.781C205.956 365.579 206.206 365.342 206.358 365.088L206.527 365.183H206.524V365.186Z" fill="#222222"/>
<path d="M206.523 364.517V365.189L206.357 365.094C206.471 364.909 206.523 364.713 206.523 364.517Z" fill="white"/>
<path d="M205.606 363.247C206.218 363.599 206.524 364.058 206.524 364.517C206.524 364.713 206.468 364.906 206.355 365.091C206.206 365.345 205.956 365.582 205.603 365.784C204.38 366.485 202.394 366.485 201.171 365.784C200.56 365.431 200.254 364.976 200.254 364.517C200.254 364.058 200.56 363.599 201.171 363.247C201.521 363.048 201.937 362.901 202.377 362.817C203.472 362.603 204.73 362.748 205.603 363.247H205.606Z" fill="white"/>
<path d="M196.253 370.389V375.107C196.253 375.566 195.947 376.025 195.336 376.377C194.11 377.078 192.127 377.078 190.904 376.377C190.292 376.025 189.986 375.566 189.986 375.107V370.392C189.986 370.851 190.292 371.31 190.904 371.659C192.127 372.36 194.11 372.36 195.336 371.659C195.947 371.31 196.253 370.851 196.253 370.392V370.389Z" fill="#222222"/>
<path d="M196.253 359.311V363.357C196.253 363.816 195.947 364.274 195.336 364.626C194.113 365.328 192.127 365.328 190.904 364.626C190.292 364.274 189.986 363.816 189.986 363.357V359.311L190.152 359.216C190.301 359.47 190.554 359.703 190.904 359.905C192.127 360.607 194.113 360.607 195.336 359.905C195.685 359.703 195.936 359.467 196.087 359.213L196.256 359.308H196.253V359.311Z" fill="#222222"/>
<path d="M196.253 358.639V359.311L196.087 359.216C196.2 359.028 196.253 358.832 196.253 358.636V358.639Z" fill="white"/>
<path d="M196.253 370.389C196.253 370.848 195.947 371.307 195.336 371.656C194.11 372.357 192.127 372.357 190.904 371.656C190.292 371.307 189.986 370.848 189.986 370.389C189.986 369.93 190.292 369.471 190.904 369.122C192.127 368.421 194.11 368.421 195.336 369.122C195.947 369.474 196.253 369.93 196.253 370.389Z" fill="white"/>
<path d="M196.253 358.639C196.253 358.835 196.198 359.028 196.084 359.216C195.936 359.47 195.685 359.706 195.333 359.908C194.11 360.609 192.124 360.609 190.901 359.908C190.551 359.706 190.301 359.47 190.149 359.216C190.036 359.028 189.98 358.835 189.98 358.639C189.98 358.18 190.286 357.721 190.898 357.372C192.121 356.671 194.107 356.671 195.33 357.372C195.941 357.721 196.247 358.18 196.247 358.639H196.253Z" fill="white"/>
<path d="M193.116 380.841C193.227 380.847 193.335 380.827 193.413 380.781L213.3 369.405C213.373 369.362 213.408 369.304 213.408 369.246V380.541C213.408 380.602 213.373 380.656 213.3 380.7L193.413 392.075C193.335 392.121 193.227 392.142 193.116 392.139V380.841Z" fill="#222222"/>
<path d="M193.117 380.841V392.139C193 392.139 192.878 392.107 192.779 392.052L172.985 380.729C172.883 380.671 172.831 380.593 172.831 380.524V369.226C172.831 369.298 172.883 369.373 172.985 369.431L192.779 380.755C192.878 380.809 193 380.841 193.117 380.841Z" fill="white"/>
<path d="M190.152 359.216L189.983 359.311V358.639C189.983 358.835 190.039 359.028 190.152 359.216Z" fill="white"/>
<path d="M185.979 364.517V369.235C185.979 369.694 185.673 370.152 185.061 370.502C183.835 371.203 181.852 371.203 180.629 370.502C180.018 370.152 179.712 369.694 179.712 369.235V365.189L179.878 365.094C180.026 365.345 180.277 365.582 180.629 365.784C181.852 366.485 183.835 366.485 185.061 365.784C185.673 365.431 185.979 364.973 185.979 364.517Z" fill="#222222"/>
<path d="M185.061 363.247C185.673 363.596 185.979 364.055 185.979 364.514C185.979 364.973 185.673 365.429 185.061 365.781C183.835 366.482 181.852 366.482 180.629 365.781C180.28 365.579 180.026 365.342 179.878 365.091C179.764 364.903 179.712 364.71 179.712 364.514C179.712 364.055 180.018 363.596 180.629 363.247C181.503 362.748 182.761 362.603 183.856 362.817C184.296 362.904 184.709 363.045 185.061 363.247Z" fill="white"/>
<path d="M179.878 365.094L179.712 365.189V364.517C179.712 364.713 179.767 364.906 179.878 365.094Z" fill="white"/>
<path d="M202.379 363.158C202.321 363.158 202.263 363.143 202.208 363.111L195.912 359.51C195.749 359.418 195.693 359.21 195.786 359.045C195.88 358.884 196.092 358.829 196.255 358.921L202.551 362.523C202.714 362.615 202.77 362.823 202.676 362.987C202.612 363.097 202.499 363.158 202.379 363.158Z" fill="#222222"/>
<path d="M193.14 381.179H193.105C192.927 381.173 192.749 381.127 192.61 381.049L172.813 369.72C172.607 369.601 172.487 369.42 172.487 369.22C172.487 369.036 172.589 368.871 172.77 368.767L179.709 364.797C179.872 364.704 180.082 364.759 180.178 364.921C180.271 365.082 180.216 365.29 180.053 365.385L173.332 369.232L192.95 380.457C192.994 380.48 193.061 380.498 193.128 380.501C193.192 380.501 193.233 380.489 193.239 380.486L213.084 369.134C213.131 369.001 213.259 368.906 213.408 368.906C213.597 368.906 213.751 369.059 213.751 369.246C213.751 369.434 213.649 369.593 213.475 369.697L193.585 381.072C193.44 381.159 193.268 381.179 193.143 381.179H193.14Z" fill="#222222"/>
<path d="M213.408 369.584C213.248 369.584 213.117 369.477 213.076 369.333L206.189 365.388C206.026 365.296 205.971 365.088 206.064 364.924C206.157 364.762 206.367 364.707 206.533 364.8L213.425 368.744C213.635 368.865 213.752 369.047 213.752 369.244C213.752 369.44 213.597 369.584 213.408 369.584Z" fill="#222222"/>
<path d="M183.856 363.158C183.737 363.158 183.623 363.097 183.559 362.987C183.466 362.826 183.521 362.618 183.684 362.523L189.98 358.921C190.143 358.829 190.353 358.884 190.449 359.045C190.542 359.207 190.487 359.415 190.324 359.51L184.028 363.111C183.972 363.143 183.914 363.158 183.856 363.158Z" fill="#222222"/>
<path d="M182.845 366.652C181.986 366.652 181.127 366.462 180.46 366.078C180.064 365.85 179.77 365.576 179.587 365.267C179.444 365.027 179.371 364.776 179.371 364.517C179.371 363.911 179.758 363.357 180.46 362.956C181.378 362.43 182.705 362.251 183.923 362.485C184.418 362.58 184.857 362.739 185.233 362.956C185.935 363.357 186.322 363.911 186.322 364.517C186.322 365.123 185.935 365.674 185.233 366.078C184.563 366.462 183.704 366.652 182.845 366.652ZM182.851 363.065C182.091 363.065 181.345 363.233 180.801 363.544C180.32 363.818 180.055 364.165 180.055 364.517C180.055 364.652 180.096 364.788 180.175 364.921C180.297 365.128 180.516 365.325 180.804 365.489C181.931 366.133 183.765 366.133 184.892 365.489C185.373 365.212 185.638 364.866 185.638 364.517C185.638 364.168 185.373 363.818 184.892 363.544C184.581 363.365 184.211 363.235 183.792 363.152C183.486 363.091 183.166 363.062 182.851 363.062V363.065Z" fill="#222222"/>
<path d="M193.117 360.774C192.258 360.774 191.399 360.584 190.729 360.2C190.336 359.972 190.042 359.701 189.855 359.386C189.712 359.146 189.64 358.893 189.64 358.636C189.64 358.03 190.027 357.476 190.729 357.075C192.068 356.307 194.165 356.307 195.505 357.075C196.206 357.476 196.594 358.03 196.594 358.636C196.594 358.893 196.521 359.144 196.378 359.386C196.192 359.701 195.898 359.972 195.505 360.2C194.835 360.584 193.976 360.774 193.117 360.774ZM193.117 357.187C192.371 357.187 191.626 357.346 191.072 357.663C190.592 357.937 190.327 358.284 190.327 358.636C190.327 358.771 190.368 358.907 190.446 359.04C190.569 359.247 190.787 359.447 191.072 359.611C192.179 360.246 194.051 360.246 195.161 359.611C195.446 359.447 195.662 359.25 195.787 359.04C195.866 358.904 195.906 358.768 195.906 358.636C195.906 358.284 195.641 357.937 195.161 357.663C194.608 357.346 193.862 357.187 193.117 357.187Z" fill="#222222"/>
<path d="M193.117 372.53C192.258 372.53 191.399 372.34 190.729 371.956C190.027 371.555 189.64 371.001 189.64 370.395C189.64 370.207 189.794 370.054 189.983 370.054C190.173 370.054 190.327 370.207 190.327 370.395C190.327 370.747 190.592 371.093 191.072 371.367C192.199 372.014 194.034 372.011 195.161 371.367C195.641 371.093 195.906 370.747 195.906 370.392C195.906 370.204 196.061 370.052 196.25 370.052C196.439 370.052 196.594 370.204 196.594 370.392C196.594 370.998 196.206 371.552 195.505 371.953C194.835 372.337 193.976 372.527 193.117 372.527V372.53Z" fill="#222222"/>
<path d="M189.983 370.733C189.794 370.733 189.64 370.58 189.64 370.392C189.64 369.789 190.027 369.232 190.729 368.831C192.068 368.063 194.165 368.066 195.505 368.831C196.206 369.235 196.594 369.789 196.594 370.392C196.594 370.58 196.439 370.733 196.25 370.733C196.061 370.733 195.906 370.58 195.906 370.392C195.906 370.04 195.641 369.694 195.161 369.417C194.034 368.773 192.199 368.773 191.072 369.417C190.592 369.694 190.327 370.04 190.327 370.392C190.327 370.58 190.173 370.733 189.983 370.733Z" fill="#222222"/>
<path d="M203.39 366.652C202.531 366.652 201.672 366.462 201.002 366.078C200.3 365.674 199.913 365.12 199.913 364.517C199.913 363.914 200.3 363.357 201.002 362.956C201.375 362.742 201.829 362.58 202.316 362.488C203.536 362.254 204.861 362.433 205.778 362.956C206.48 363.36 206.867 363.914 206.867 364.52C206.867 364.776 206.794 365.027 206.652 365.267C206.465 365.579 206.171 365.853 205.778 366.078C205.108 366.462 204.249 366.652 203.39 366.652ZM203.384 363.065C203.07 363.065 202.752 363.094 202.444 363.152C202.033 363.23 201.652 363.365 201.343 363.541C200.862 363.818 200.597 364.165 200.597 364.517C200.597 364.869 200.862 365.215 201.343 365.489C202.449 366.124 204.325 366.124 205.431 365.489C205.717 365.325 205.932 365.128 206.058 364.918C206.136 364.785 206.177 364.649 206.177 364.514C206.177 364.162 205.912 363.815 205.431 363.538C204.89 363.23 204.144 363.062 203.381 363.062H203.384V363.065Z" fill="#222222"/>
<path d="M203.39 371.37C202.531 371.37 201.672 371.18 201.002 370.796C200.3 370.395 199.913 369.841 199.913 369.235V364.517C199.913 364.329 200.067 364.176 200.257 364.176C200.446 364.176 200.6 364.329 200.6 364.517V369.235C200.6 369.587 200.865 369.933 201.346 370.207C202.455 370.842 204.328 370.842 205.434 370.207C205.915 369.933 206.18 369.587 206.18 369.235V364.517C206.18 364.329 206.334 364.176 206.523 364.176C206.713 364.176 206.867 364.329 206.867 364.517V369.235C206.867 369.841 206.48 370.395 205.778 370.796C205.108 371.18 204.249 371.37 203.39 371.37Z" fill="#222222"/>
<path d="M193.117 365.492C192.258 365.492 191.399 365.302 190.729 364.918C190.027 364.514 189.64 363.96 189.64 363.354V358.636C189.64 358.448 189.794 358.295 189.983 358.295C190.173 358.295 190.327 358.448 190.327 358.636V363.354C190.327 363.706 190.592 364.052 191.072 364.329C192.182 364.964 194.054 364.964 195.161 364.329C195.641 364.052 195.906 363.706 195.906 363.354V358.636C195.906 358.448 196.061 358.295 196.25 358.295C196.439 358.295 196.594 358.448 196.594 358.636V363.354C196.594 363.96 196.206 364.514 195.505 364.915C194.835 365.299 193.976 365.489 193.117 365.489V365.492Z" fill="#222222"/>
<path d="M193.117 377.248C192.258 377.248 191.399 377.058 190.729 376.674C190.027 376.27 189.64 375.716 189.64 375.11V370.395C189.64 370.207 189.794 370.054 189.983 370.054C190.173 370.054 190.327 370.207 190.327 370.395V375.11C190.327 375.462 190.592 375.808 191.072 376.085C192.199 376.729 194.034 376.729 195.161 376.085C195.641 375.808 195.906 375.462 195.906 375.11V370.392C195.906 370.204 196.061 370.052 196.25 370.052C196.439 370.052 196.594 370.204 196.594 370.392V375.11C196.594 375.716 196.206 376.27 195.505 376.671C194.835 377.055 193.976 377.246 193.117 377.246V377.248Z" fill="#222222"/>
<path d="M182.845 371.37C181.986 371.37 181.127 371.18 180.457 370.796C179.755 370.395 179.368 369.841 179.368 369.235V364.517C179.368 364.329 179.523 364.176 179.712 364.176C179.901 364.176 180.055 364.329 180.055 364.517V369.235C180.055 369.587 180.32 369.933 180.801 370.207C181.928 370.854 183.762 370.851 184.892 370.207C185.373 369.933 185.638 369.587 185.638 369.235V364.517C185.638 364.329 185.792 364.176 185.981 364.176C186.171 364.176 186.325 364.329 186.325 364.517V369.235C186.325 369.841 185.938 370.395 185.236 370.796C184.566 371.18 183.707 371.37 182.848 371.37H182.845Z" fill="#222222"/>
<path d="M193.143 392.476H193.105C192.927 392.47 192.752 392.424 192.61 392.346L172.813 381.02C172.607 380.902 172.487 380.72 172.487 380.521V369.223C172.487 369.036 172.642 368.883 172.831 368.883C173.02 368.883 173.175 369.036 173.175 369.223V380.437L192.953 391.752C192.997 391.775 193.064 391.792 193.131 391.795C193.198 391.795 193.233 391.787 193.242 391.781L213.07 380.44V369.244C213.07 369.056 213.224 368.903 213.414 368.903C213.603 368.903 213.757 369.056 213.757 369.244V380.538C213.757 380.72 213.655 380.884 213.48 380.988L193.591 392.367C193.445 392.453 193.277 392.473 193.148 392.473H193.143V392.476Z" fill="#222222"/>
<path d="M193.116 392.476C192.927 392.476 192.772 392.323 192.772 392.136V380.838C192.772 380.651 192.927 380.498 193.116 380.498C193.305 380.498 193.46 380.651 193.46 380.838V392.136C193.46 392.323 193.305 392.476 193.116 392.476Z" fill="#222222"/>
</g>
<g clip-path="url(#clip8_5856_172872)">
<path d="M132.365 364.065C131.392 364.627 129.951 364.405 128.423 364.167C126.744 363.909 125.003 363.638 123.636 364.43C121.953 365.402 122.643 366.89 123.053 367.776C123.571 368.895 123.566 369.133 123 369.457C122.027 370.019 120.586 369.797 119.063 369.56C117.383 369.301 115.647 369.031 114.28 369.822C112.596 370.794 113.286 372.282 113.697 373.168C114.214 374.288 114.21 374.525 113.643 374.849C112.67 375.411 111.229 375.19 109.702 374.952C108.023 374.694 106.286 374.423 104.919 375.214C103.236 376.186 103.926 377.675 104.336 378.565C104.853 379.684 104.849 379.922 104.283 380.246C103.31 380.803 101.869 380.582 100.346 380.348C98.6663 380.09 96.9256 379.823 95.5626 380.611C95.2546 380.791 95.1479 381.185 95.3244 381.496C95.5051 381.808 95.8992 381.911 96.2112 381.734C97.1842 381.173 98.6253 381.394 100.148 381.632C100.99 381.763 101.848 381.894 102.665 381.894C103.482 381.894 104.25 381.763 104.931 381.369C106.611 380.397 105.925 378.913 105.51 378.023C104.993 376.9 104.997 376.666 105.564 376.338C106.533 375.776 107.974 375.998 109.501 376.235C111.18 376.494 112.921 376.764 114.288 375.973C115.971 375.001 115.281 373.513 114.871 372.627C114.354 371.507 114.358 371.27 114.924 370.946C115.897 370.384 117.338 370.605 118.861 370.843C120.541 371.101 122.277 371.372 123.644 370.581C125.328 369.609 124.638 368.12 124.227 367.234C123.71 366.115 123.714 365.877 124.281 365.553C125.254 364.991 126.695 365.217 128.222 365.451C129.901 365.709 131.642 365.98 133.009 365.188C133.321 365.008 133.424 364.614 133.247 364.303C133.067 363.991 132.672 363.884 132.36 364.065H132.365Z" fill="#222222"/>
</g>
<g clip-path="url(#clip9_5856_172872)">
<path d="M164.52 403.058C165.705 403.058 166.89 402.773 167.794 402.202L173.643 398.503C173.811 398.396 173.87 398.16 173.773 397.976C173.675 397.789 173.46 397.727 173.291 397.834L167.442 401.533C165.831 402.552 163.212 402.552 161.602 401.533C160.889 401.082 160.495 400.504 160.495 399.909C160.495 399.313 160.887 398.737 161.602 398.286L168.643 393.829C169.867 393.056 171.859 393.056 173.083 393.829C173.608 394.162 173.898 394.581 173.898 395.009C173.898 395.437 173.608 395.858 173.083 396.189L167.978 399.417C167.147 399.942 165.743 399.942 164.911 399.417C164.573 399.204 164.379 398.931 164.379 398.671C164.379 398.411 164.573 398.138 164.911 397.925L168.733 395.507C168.902 395.4 168.96 395.164 168.863 394.98C168.765 394.794 168.55 394.732 168.382 394.838L164.559 397.257C163.988 397.617 163.675 398.121 163.675 398.673C163.675 399.225 163.99 399.729 164.559 400.09C165.617 400.758 167.274 400.758 168.33 400.09L173.435 396.861C174.188 396.385 174.604 395.728 174.604 395.011C174.604 394.294 174.188 393.637 173.435 393.16C171.991 392.248 169.733 392.248 168.291 393.16L161.248 397.615C160.307 398.21 159.789 399.024 159.789 399.907C159.789 400.791 160.307 401.605 161.248 402.2C162.15 402.771 163.335 403.056 164.522 403.056L164.52 403.058Z" fill="#222222"/>
</g>
<defs>
<clipPath id="clip0_5856_172872">
<rect width="258.201" height="306.878" fill="white" transform="matrix(-1 0 0 1 400 0.941772)"/>
</clipPath>
<clipPath id="clip1_5856_172872">
<rect width="37" height="27" fill="white" transform="translate(158 240.942)"/>
</clipPath>
<clipPath id="clip2_5856_172872">
<rect width="13" height="8" fill="white" transform="translate(171 207.942)"/>
</clipPath>
<clipPath id="clip3_5856_172872">
<rect width="13.7566" height="8.46561" fill="white" transform="translate(17.9902 225.28)"/>
</clipPath>
<clipPath id="clip4_5856_172872">
<rect width="13.7566" height="8.46561" fill="white" transform="translate(374.604 344.857)"/>
</clipPath>
<clipPath id="clip5_5856_172872">
<rect width="132.99" height="110.309" fill="white" transform="translate(0 254.577)"/>
</clipPath>
<clipPath id="clip6_5856_172872">
<rect width="86.7725" height="77.2487" fill="white" transform="translate(184.127 289.831)"/>
</clipPath>
<clipPath id="clip7_5856_172872">
<rect width="41.2698" height="35.9788" fill="white" transform="translate(172.487 356.497)"/>
</clipPath>
<clipPath id="clip8_5856_172872">
<rect width="38.0952" height="17.9894" fill="white" transform="translate(95.2383 363.905)"/>
</clipPath>
<clipPath id="clip9_5856_172872">
<rect width="14.8148" height="10.582" fill="white" transform="translate(159.789 392.476)"/>
</clipPath>
</defs>
</svg>
